<?xml version="1.0" standalone="no"?>
<!DOCTYPE svg PUBLIC "-//W3C//DTD SVG 20010904//EN"
 "http://www.w3.org/TR/2001/REC-SVG-20010904/DTD/svg10.dtd">
<svg version="1.0" xmlns="http://www.w3.org/2000/svg"
 width="626.000000pt" height="316.000000pt" viewBox="0 0 626.000000 316.000000"
 preserveAspectRatio="xMidYMid meet">

<g transform="translate(0.000000,316.000000) scale(0.100000,-0.100000)"
fill="#000000" stroke="none">
<path d="M3269 2689 c-6 -28 -2 -99 6 -99 11 0 12 86 1 97 -3 3 -6 4 -7 2z"/>
<path d="M3269 2534 c-1 -5 0 -40 1 -77 2 -63 0 -68 -17 -63 -47 14 -201 26
-336 26 -169 0 -336 -21 -459 -56 -12 -4 -18 0 -18 10 0 9 -5 16 -10 16 -6 0
-10 -7 -8 -15 2 -11 -20 -24 -78 -44 -96 -34 -254 -114 -279 -141 -9 -10 -93
-236 -186 -502 -93 -266 -172 -484 -177 -486 -4 -1 -122 -63 -262 -136 -245
-129 -278 -152 -253 -177 6 -6 134 8 329 35 175 25 375 51 444 58 l125 14 475
-73 475 -73 59 22 c151 55 346 -8 448 -146 48 -64 104 -191 137 -308 16 -59
37 -118 46 -132 27 -41 232 -186 262 -186 5 0 30 51 55 113 l45 114 -73 66
c-116 107 -137 182 -68 251 44 43 107 43 278 0 56 -15 59 -14 81 6 22 21 24
21 83 6 33 -9 65 -16 71 -16 12 0 13 100 2 118 -4 6 -28 20 -54 31 -26 11 -47
24 -47 29 0 4 4 33 9 63 18 104 22 149 14 149 -5 0 -14 -46 -21 -102 -6 -56
-14 -103 -16 -105 -2 -3 -64 13 -138 36 -73 22 -227 65 -343 96 -115 31 -221
60 -235 64 l-25 8 0 331 c0 183 -3 332 -7 332 -5 0 -8 -149 -8 -331 0 -260 -3
-330 -12 -327 -10 4 -14 69 -16 272 -2 222 -5 267 -16 263 -10 -4 -12 0 -9 14
3 10 0 19 -6 19 -6 0 -11 6 -11 14 0 10 -7 12 -22 8 -28 -7 -49 -32 -43 -50 3
-7 -2 -12 -11 -10 -13 3 -15 -27 -14 -244 1 -218 -1 -248 -15 -248 -14 0 -15
59 -15 538 0 295 -3 537 -7 538 -4 1 -16 -12 -25 -27 -10 -16 -22 -29 -27 -29
-10 0 -50 103 -57 149 -5 32 -5 32 28 27 18 -3 62 -11 98 -16 181 -30 426
-113 523 -177 l52 -34 -44 40 c-140 130 -394 252 -634 305 -28 7 -28 7 -26 76
1 39 -1 73 -4 77 -4 3 -7 2 -8 -3z m-71 -145 l72 -12 0 -46 0 -46 -193 -1
c-205 0 -299 -12 -457 -58 -104 -30 -144 -45 -138 -51 3 -3 37 6 77 20 171 58
420 92 600 82 57 -3 106 -8 108 -11 3 -3 -5 -38 -17 -78 l-22 -73 -29 35 c-16
19 -29 32 -29 30 0 -3 -2 -103 -3 -224 l-2 -218 -39 -34 c-31 -27 -37 -37 -28
-46 9 -9 12 -8 12 4 0 9 16 30 35 47 l35 30 0 207 0 207 55 -56 c30 -31 55
-59 55 -64 0 -4 -12 -21 -26 -36 l-26 -28 2 -180 1 -181 -38 -37 -38 -38 3
-203 3 -202 -57 7 c-90 11 -85 4 -84 129 1 61 1 116 1 121 -1 6 -12 -3 -26
-20 l-25 -30 1 135 c1 90 -2 135 -10 138 -6 2 -11 12 -11 22 0 10 -13 32 -30
50 -16 18 -30 43 -30 56 0 13 -9 33 -21 45 -17 17 -20 29 -15 60 4 24 2 39 -4
39 -6 0 -10 -30 -9 -72 1 -40 3 -65 6 -55 2 9 9 17 14 17 9 0 23 -45 22 -71
-1 -9 9 -21 22 -27 46 -21 41 -107 -5 -119 -11 -3 -20 -12 -20 -20 0 -8 -5
-24 -12 -36 -11 -21 -11 -21 -19 -2 -7 18 -8 18 -8 -4 -1 -23 -2 -24 -21 -6
-11 10 -23 15 -28 10 -4 -4 -1 -10 6 -12 6 -3 10 -9 7 -14 -4 -5 1 -6 9 -3 9
4 18 -1 22 -10 3 -9 12 -16 18 -16 21 0 96 -97 96 -123 0 -8 -30 -43 -67 -78
-38 -34 -58 -57 -46 -50 12 6 25 16 28 22 4 5 18 14 31 19 13 5 24 16 24 24 0
8 14 26 30 39 17 14 30 30 30 35 0 5 7 15 15 22 13 11 15 -1 15 -95 l0 -107
-32 5 c-18 3 -60 9 -93 13 -33 3 -65 11 -72 16 -7 5 -14 5 -18 -2 -12 -19 -55
-11 -65 13 l-9 22 0 -22 c-1 -22 -5 -23 -93 -24 -51 -1 -112 -3 -136 -4 l-42
-3 0 435 c1 345 4 442 15 468 12 30 11 40 -11 100 -13 36 -24 75 -24 85 0 38
-15 20 -32 -37 -9 -32 -15 -59 -13 -61 2 -2 9 15 16 37 14 48 20 45 43 -23 19
-58 20 -75 5 -113 -7 -18 -10 -177 -9 -459 0 -238 -3 -434 -7 -437 -4 -2 -40
-7 -80 -11 l-72 -7 -4 43 -4 43 -1 -48 c-1 -30 -6 -46 -12 -42 -11 7 -13 465
-3 492 12 31 22 8 26 -59 1 -40 4 6 5 103 2 172 13 244 36 236 6 -2 15 -17 20
-33 4 -16 12 -36 17 -44 5 -8 12 -23 15 -32 4 -10 11 -18 18 -18 18 0 11 226
-9 274 -10 23 -14 50 -10 65 6 25 6 25 -9 6 -17 -22 -21 -45 -7 -45 5 0 14
-20 20 -44 14 -57 15 -230 1 -221 -5 3 -10 17 -10 31 0 14 -9 34 -20 46 -11
12 -20 28 -20 35 0 7 -4 13 -10 13 -5 0 -10 -6 -10 -13 0 -7 -7 -23 -16 -36
-13 -18 -16 -45 -15 -126 2 -95 0 -104 -19 -118 -21 -14 -21 -21 -20 -266 0
-173 -3 -251 -10 -251 -8 0 -10 66 -8 215 2 118 -1 214 -5 212 -5 -1 -9 -99
-10 -216 -2 -161 -5 -215 -14 -218 -9 -3 -14 9 -15 39 l-1 43 -4 -41 -4 -41
-56 -12 c-31 -6 -60 -11 -65 -11 -4 0 -9 35 -10 78 l-2 77 -5 -79 -6 -80 -210
-43 c-115 -23 -288 -59 -384 -78 -96 -20 -181 -34 -188 -33 -7 2 96 60 230
131 191 100 252 127 283 127 l39 0 95 238 c112 282 184 430 241 495 23 27 77
74 121 104 43 30 77 58 74 60 -2 3 -26 -10 -53 -28 -179 -122 -209 -168 -382
-593 l-106 -261 -33 -3 c-31 -3 -33 -2 -27 20 46 148 328 935 341 949 33 36
299 159 345 159 4 0 10 -12 12 -27 4 -27 4 -27 6 4 1 34 1 34 154 63 155 30
453 35 605 9z m207 -44 c121 -35 243 -87 347 -148 48 -28 86 -52 85 -54 -2 -1
-38 11 -80 27 -97 38 -275 84 -389 100 l-88 13 0 44 c0 52 3 53 125 18z m-88
-251 c7 -45 -13 -52 -49 -18 -31 31 -32 47 -8 109 l12 30 20 -45 c11 -25 22
-59 25 -76z m69 -1011 c-2 -3 -47 5 -100 16 -53 12 -98 21 -101 21 -3 0 -5 91
-5 201 l0 201 38 38 37 37 -3 169 c-2 93 0 179 3 191 3 12 25 43 50 69 25 25
45 49 45 52 0 3 8 14 18 25 16 18 17 -5 20 -499 1 -284 0 -519 -2 -521z m132
498 c-2 -9 -11 -17 -21 -19 -21 -4 -35 27 -17 38 19 12 42 0 38 -19z m-548
-123 l0 -123 -20 25 c-11 14 -23 35 -26 48 -3 12 -12 22 -19 22 -28 0 -37 27
-19 62 15 30 67 88 79 88 3 0 5 -55 5 -122z m578 -166 l2 -254 -32 7 c-85 19
-78 -5 -78 264 l0 240 53 -2 52 -2 3 -253z m-503 -162 c66 -12 134 -23 150
-26 262 -46 1074 -266 1200 -325 49 -24 50 -25 53 -72 2 -30 -1 -47 -8 -47 -6
0 -188 45 -403 101 -421 108 -833 208 -962 233 -367 71 -752 58 -1552 -54
-303 -43 -333 -45 -333 -30 0 6 10 10 23 10 26 0 151 24 563 109 161 33 327
65 371 71 44 6 88 12 99 14 54 11 179 26 254 32 47 3 87 8 90 11 13 12 344 -7
455 -27z"/>
<path d="M2089 1818 c0 -2 -2 -15 -4 -31 -2 -15 -10 -40 -18 -56 -8 -16 -11
-33 -7 -38 5 -4 10 -17 13 -28 3 -11 5 0 6 25 1 52 10 90 21 90 12 0 30 -49
30 -83 l0 -32 13 25 c11 22 10 29 -10 59 -13 19 -23 40 -23 47 0 11 -19 31
-21 22z"/>
<path d="M2628 1757 c-26 -15 -39 -32 -48 -59 -10 -36 -30 -44 -30 -12 0 8 -3
14 -7 14 -5 0 -7 -44 -5 -97 2 -70 0 -94 -8 -83 -7 11 -8 6 -3 -20 3 -19 11
-38 18 -42 6 -4 25 -26 41 -49 16 -24 52 -66 81 -94 28 -29 54 -63 56 -76 6
-27 0 29 -12 111 l-8 55 -2 -55 -2 -55 -59 64 c-78 85 -90 112 -89 203 0 40 3
67 6 61 7 -18 73 -83 85 -83 5 0 16 -7 24 -15 18 -17 34 -20 34 -5 0 6 -12 16
-27 23 -16 6 -30 14 -33 18 -3 3 -13 8 -22 12 -9 3 -24 18 -34 32 -15 23 -15
31 -4 66 14 41 60 89 86 89 8 0 14 5 14 10 0 14 -9 11 -52 -13z"/>
<path d="M2854 1625 c0 -60 1 -84 3 -52 2 32 2 81 0 110 -2 29 -3 3 -3 -58z"/>
<path d="M2110 1625 l-14 -40 -7 30 c-5 24 -7 20 -6 -20 0 -27 -3 -72 -6 -100
-7 -54 -7 -55 28 89 8 33 12 28 29 -31 10 -38 13 -44 9 -18 -3 22 -9 60 -12
85 l-7 45 -14 -40z"/>
<path d="M2494 1578 c3 -13 7 -108 8 -213 l2 -190 6 190 c5 202 4 235 -12 235
-6 0 -8 -10 -4 -22z"/>
<path d="M2693 1455 c0 -27 2 -38 4 -22 2 15 2 37 0 50 -2 12 -4 0 -4 -28z"/>
<path d="M2152 1470 c0 -14 2 -19 5 -12 2 6 2 18 0 25 -3 6 -5 1 -5 -13z"/>
<path d="M2291 1474 c0 -11 3 -14 6 -6 3 7 2 16 -1 19 -3 4 -6 -2 -5 -13z"/>
<path d="M2062 1415 c0 -16 2 -22 5 -12 2 9 2 23 0 30 -3 6 -5 -1 -5 -18z"/>
<path d="M2161 1410 c0 -33 1 -34 10 -11 6 16 6 28 -1 35 -7 7 -10 -1 -9 -24z"/>
<path d="M2814 1325 c0 -55 1 -76 3 -47 2 29 2 74 0 100 -2 26 -3 2 -3 -53z"/>
<path d="M2048 1373 c-2 -5 -1 -28 2 -53 l6 -45 5 48 c4 43 -3 71 -13 50z"/>
<path d="M2173 1290 c0 -41 2 -58 4 -37 2 20 2 54 0 75 -2 20 -4 3 -4 -38z"/>
<path d="M4348 2098 c5 -95 9 -104 11 -25 0 42 -2 77 -6 77 -5 0 -7 -24 -5
-52z"/>
<path d="M3990 2014 c0 -8 5 -12 10 -9 6 3 10 10 10 16 0 5 -4 9 -10 9 -5 0
-10 -7 -10 -16z"/>
<path d="M4110 2020 c0 -5 5 -10 10 -10 6 0 10 5 10 10 0 6 -4 10 -10 10 -5 0
-10 -4 -10 -10z"/>
<path d="M3981 1978 c0 -10 -8 -18 -16 -18 -12 0 -15 -14 -15 -62 0 -71 8 -75
11 -5 3 52 5 54 89 60 l45 4 -52 1 c-40 2 -53 6 -56 20 -4 16 -5 16 -6 0z"/>
<path d="M4347 1975 c-4 -8 -2 -17 3 -20 6 -4 10 3 10 14 0 25 -6 27 -13 6z"/>
<path d="M3727 1940 c5 -36 2 -43 -33 -77 -29 -29 -37 -45 -35 -66 2 -25 0
-28 -18 -22 -14 4 -21 2 -21 -7 0 -10 23 -12 106 -10 l106 4 -4 -47 c-3 -40
-1 -45 14 -41 17 4 18 -14 18 -295 0 -164 3 -299 8 -299 4 0 7 137 7 305 0
289 -1 305 -18 305 -16 0 -18 7 -15 43 l3 42 -88 -2 c-86 -2 -87 -2 -87 23 0
23 2 24 70 21 47 -2 69 0 67 7 -2 7 -29 10 -68 8 l-64 -3 27 28 27 27 26 -24
c30 -28 34 -19 5 12 -14 15 -20 36 -20 65 0 24 -4 43 -9 43 -5 0 -7 -18 -4
-40z"/>
<path d="M4130 1953 c8 -3 18 -10 21 -15 3 -5 9 -3 12 6 5 12 0 16 -21 15 -16
0 -21 -3 -12 -6z"/>
<path d="M4471 1834 c0 -11 3 -14 6 -6 3 7 2 16 -1 19 -3 4 -6 -2 -5 -13z"/>
<path d="M4472 1760 c0 -14 2 -19 5 -12 2 6 2 18 0 25 -3 6 -5 1 -5 -13z"/>
<path d="M4440 1760 c0 -5 5 -10 10 -10 6 0 10 5 10 10 0 6 -4 10 -10 10 -5 0
-10 -4 -10 -10z"/>
<path d="M4010 1749 c0 -5 5 -7 10 -4 6 3 10 8 10 11 0 2 -4 4 -10 4 -5 0 -10
-5 -10 -11z"/>
<path d="M4471 1714 c0 -11 3 -14 6 -6 3 7 2 16 -1 19 -3 4 -6 -2 -5 -13z"/>
<path d="M3626 1691 c-4 -7 -5 -15 -2 -18 9 -9 19 4 14 18 -4 11 -6 11 -12 0z"/>
<path d="M4472 1660 c0 -19 2 -27 5 -17 2 9 2 25 0 35 -3 9 -5 1 -5 -18z"/>
<path d="M4002 1640 c0 -14 2 -19 5 -12 2 6 2 18 0 25 -3 6 -5 1 -5 -13z"/>
<path d="M4400 1656 c0 -2 7 -7 16 -10 8 -3 12 -2 9 4 -6 10 -25 14 -25 6z"/>
<path d="M3943 1575 c0 -44 2 -61 4 -37 2 23 2 59 0 80 -2 20 -4 1 -4 -43z"/>
<path d="M4440 1636 c0 -4 14 -20 32 -36 28 -26 30 -31 17 -47 -7 -10 -1 -7
14 6 26 24 36 51 18 51 -5 0 -12 -6 -15 -12 -3 -10 -8 -9 -18 2 -19 22 -48 43
-48 36z"/>
<path d="M4111 1584 c0 -11 3 -14 6 -6 3 7 2 16 -1 19 -3 4 -6 -2 -5 -13z"/>
<path d="M3992 1535 c0 -16 2 -22 5 -12 2 9 2 23 0 30 -3 6 -5 -1 -5 -18z"/>
<path d="M4350 1325 c-3 -132 -4 -242 -2 -244 13 -22 16 49 12 249 l-5 235 -5
-240z"/>
<path d="M4122 1470 c0 -19 2 -27 5 -17 2 9 2 25 0 35 -3 9 -5 1 -5 -18z"/>
<path d="M4416 1451 c-20 -27 -36 -59 -35 -72 1 -20 3 -19 11 9 6 17 15 32 19
32 5 0 9 5 9 11 0 6 9 24 21 40 11 16 18 29 16 29 -3 0 -21 -22 -41 -49z"/>
<path d="M3982 1430 c0 -19 2 -27 5 -17 2 9 2 25 0 35 -3 9 -5 1 -5 -18z"/>
<path d="M4174 1370 c0 -52 1 -74 3 -47 2 26 2 68 0 95 -2 26 -3 4 -3 -48z"/>
<path d="M4222 1248 c-1 -93 1 -168 6 -168 4 0 6 57 4 127 -4 205 -8 221 -10
41z"/>
<path d="M4133 1365 c0 -22 2 -30 4 -17 2 12 2 30 0 40 -3 9 -5 -1 -4 -23z"/>
<path d="M3934 1250 c0 -69 1 -97 3 -62 2 34 2 90 0 125 -2 34 -3 6 -3 -63z"/>
<path d="M4516 1363 c-10 -11 -7 -23 7 -23 25 0 57 -45 57 -80 0 -42 5 -37 13
13 4 27 2 37 -8 37 -7 0 -24 13 -38 29 -14 17 -28 27 -31 24z"/>
<path d="M3973 1315 c0 -27 2 -38 4 -22 2 15 2 37 0 50 -2 12 -4 0 -4 -28z"/>
<path d="M4393 1255 c0 -33 2 -45 4 -27 2 18 2 45 0 60 -2 15 -4 0 -4 -33z"/>
<path d="M4143 1255 c0 -22 2 -30 4 -17 2 12 2 30 0 40 -3 9 -5 -1 -4 -23z"/>
<path d="M3963 1210 c0 -30 2 -43 4 -27 2 15 2 39 0 55 -2 15 -4 2 -4 -28z"/>
<path d="M4573 1170 c0 -25 2 -35 4 -22 2 12 2 32 0 45 -2 12 -4 2 -4 -23z"/>
<path d="M4182 1153 c-2 -66 -20 -70 -25 -5 -3 46 -3 46 -5 -10 -2 -51 0 -58
17 -58 26 0 27 5 20 70 l-6 55 -1 -52z"/>
<path d="M4400 1142 c0 -16 -3 -37 -6 -46 -4 -10 -1 -16 9 -16 12 0 14 9 10
43 -7 52 -13 61 -13 19z"/>
<path d="M3951 1121 c-1 -16 -5 -21 -16 -17 -9 3 -15 0 -15 -9 0 -15 35 -21
43 -7 2 4 1 18 -4 32 l-7 25 -1 -24z"/>
<path d="M4557 1106 c-3 -8 -2 -18 4 -22 16 -9 22 2 11 21 -8 15 -10 16 -15 1z"/>
<path d="M4516 1101 c-4 -7 -5 -15 -2 -18 9 -9 19 4 14 18 -4 11 -6 11 -12 0z"/>
<path d="M4600 1092 c0 -9 117 -8 127 2 3 3 -24 6 -60 6 -37 0 -67 -4 -67 -8z"/>
</g>
</svg>
