<?xml version="1.0" standalone="no"?>
<!DOCTYPE svg PUBLIC "-//W3C//DTD SVG 20010904//EN"
 "http://www.w3.org/TR/2001/REC-SVG-20010904/DTD/svg10.dtd">
<svg version="1.0" xmlns="http://www.w3.org/2000/svg"
 width="296.000000pt" height="233.000000pt" viewBox="0 0 296.000000 233.000000"
 preserveAspectRatio="xMidYMid meet">

<g transform="translate(0.000000,233.000000) scale(0.100000,-0.100000)"
fill="#000000" stroke="none">
<path d="M914 2276 c-113 -87 -189 -177 -244 -291 -133 -274 -118 -456 53
-655 36 -41 37 -45 20 -57 -53 -38 -156 -153 -185 -207 -27 -51 -32 -71 -32
-123 0 -56 5 -69 40 -120 46 -67 134 -135 206 -159 100 -33 315 6 432 77 82
51 187 141 284 245 l90 96 54 -11 c29 -5 103 -15 163 -21 100 -9 578 -39 633
-40 21 0 22 3 22 104 0 58 -4 107 -9 111 -6 3 -85 14 -178 26 -92 11 -178 25
-191 31 -30 16 -45 72 -31 122 l11 39 114 -7 c132 -8 122 -21 103 125 -7 54
-16 90 -25 93 -34 13 -224 38 -247 32 -45 -11 -46 -42 -11 -261 18 -110 33
-218 33 -239 l1 -39 -87 6 c-96 7 -195 29 -231 53 l-23 15 20 27 c17 24 112
215 195 392 40 86 50 140 37 202 -12 54 -48 126 -84 166 -46 50 -113 15 -258
-134 -108 -112 -124 -145 -116 -234 7 -83 67 -190 105 -190 19 0 91 42 160 92
69 51 68 35 -9 -111 -90 -169 -80 -162 -120 -84 -19 37 -47 76 -62 87 l-27 20
-43 -21 c-43 -21 -241 -165 -252 -183 -4 -6 12 -10 37 -10 38 0 46 4 65 35 13
19 32 39 43 45 17 9 25 2 70 -62 28 -40 62 -92 75 -115 l25 -42 -23 -27 -24
-28 -49 19 c-108 40 -238 106 -331 169 -219 146 -340 306 -381 504 -14 70 -15
93 -4 178 22 170 95 260 304 374 l73 40 -60 0 c-57 0 -63 -3 -131 -54z m816
-434 c91 -91 67 -282 -36 -282 -68 0 -127 86 -126 187 1 126 83 174 162 95z
m-901 -619 c31 -26 58 -50 61 -53 14 -14 122 -92 174 -125 72 -46 184 -98 249
-115 26 -7 47 -16 47 -21 0 -14 -132 -87 -200 -109 -126 -43 -286 -12 -388 75
-85 72 -99 196 -36 335 15 33 29 60 32 60 3 0 30 -21 61 -47z"/>
<path d="M1485 2240 c90 -179 97 -218 45 -235 -32 -10 -57 11 -101 88 -23 39
-53 89 -66 110 l-23 37 -60 -47 c-35 -29 -59 -56 -59 -68 -1 -29 87 -178 132
-224 21 -22 50 -42 64 -46 69 -17 373 198 373 263 0 17 -35 109 -70 185 l-13
27 -134 0 -133 0 45 -90z"/>
<path d="M1215 1588 c-76 -41 -51 -150 38 -165 50 -8 87 24 87 74 0 47 -16 72
-55 89 -41 17 -44 17 -70 2z"/>
<path d="M1514 998 c-133 -148 -220 -309 -194 -358 41 -77 268 -41 561 89 186
83 223 104 233 133 6 15 7 30 5 33 -3 3 -33 -8 -65 -25 -156 -77 -397 -130
-455 -100 -44 24 -61 108 -38 195 20 78 21 85 11 85 -6 0 -32 -24 -58 -52z"/>
<path d="M775 591 c-31 -13 -40 -27 -90 -153 -25 -64 -60 -137 -76 -162 -16
-26 -29 -51 -29 -56 0 -18 95 27 99 46 7 37 22 44 97 44 66 0 74 -2 85 -22 34
-67 74 -83 119 -48 l25 19 -21 23 c-41 44 -77 108 -118 210 -42 103 -52 115
-91 99z m35 -178 c22 -59 18 -63 -51 -63 -52 0 -57 16 -25 86 24 51 28 56 42
43 8 -8 23 -38 34 -66z"/>
<path d="M992 564 l-33 -26 43 -21 43 -22 -3 -137 c-4 -149 -3 -152 49 -121
24 14 29 24 29 58 1 46 10 118 16 124 8 8 113 -109 140 -155 14 -24 29 -44 33
-44 5 0 20 11 35 25 24 22 26 31 27 107 2 122 -1 232 -6 237 -3 2 -21 -9 -41
-24 -35 -27 -35 -28 -29 -79 4 -28 8 -58 10 -66 3 -8 1 -21 -3 -28 -6 -8 -34
13 -95 73 -76 74 -148 125 -174 125 -4 0 -23 -12 -41 -26z"/>
<path d="M1578 570 c-116 -35 -182 -160 -129 -245 40 -65 95 -105 144 -105 25
0 97 45 97 60 0 6 -20 10 -44 10 -52 0 -88 25 -116 81 -50 96 1 185 81 145 24
-12 34 -13 50 -3 22 14 33 37 22 47 -14 13 -77 19 -105 10z"/>
<path d="M1782 544 c-27 -19 -28 -34 -2 -34 17 0 20 -7 20 -44 0 -37 -4 -47
-27 -62 l-28 -18 25 -6 c24 -6 25 -9 23 -78 -2 -63 0 -72 16 -72 30 0 59 41
63 90 3 42 5 45 33 48 28 3 75 36 75 53 0 4 -24 9 -52 11 -50 3 -53 5 -50 27
3 31 1 30 47 36 35 4 85 37 85 57 0 4 -46 8 -103 8 -77 0 -108 -4 -125 -16z"/>
<path d="M2145 543 c-47 -24 -94 -73 -106 -111 -16 -48 5 -115 51 -163 44 -47
93 -53 140 -17 35 25 30 38 -14 38 -77 0 -132 112 -94 194 15 33 43 42 73 22
32 -21 48 -20 71 5 18 20 18 21 -1 35 -25 18 -82 17 -120 -3z"/>
<path d="M2391 549 c-109 -43 -153 -161 -93 -245 39 -54 55 -65 99 -71 34 -4
42 0 72 31 l35 36 -46 0 c-56 0 -89 24 -112 81 -20 48 -14 89 15 115 17 15 25
16 51 6 27 -10 35 -9 50 5 24 22 23 39 -4 47 -29 7 -38 7 -67 -5z"/>
</g>
</svg>
