<?xml version="1.0" standalone="no"?>
<!DOCTYPE svg PUBLIC "-//W3C//DTD SVG 20010904//EN"
 "http://www.w3.org/TR/2001/REC-SVG-20010904/DTD/svg10.dtd">
<svg version="1.0" xmlns="http://www.w3.org/2000/svg"
 width="360.000000pt" height="360.000000pt" viewBox="0 0 360.000000 360.000000"
 preserveAspectRatio="xMidYMid meet">

<g transform="translate(0.000000,360.000000) scale(0.100000,-0.100000)"
fill="#000000" stroke="none">
<path d="M1705 2873 c39 -4 55 -16 55 -40 0 -6 -10 -14 -22 -16 -20 -4 -20 -4
4 -6 16 0 28 -8 31 -18 4 -16 5 -16 6 1 1 17 7 18 69 13 37 -3 86 -13 110 -21
24 -9 40 -12 38 -7 -3 5 -26 14 -51 21 -28 8 -42 17 -38 24 4 7 2 8 -5 1 -6
-5 -38 -8 -71 -7 -50 3 -60 7 -65 25 -3 12 0 25 7 29 7 4 -15 7 -48 6 -46 -1
-51 -2 -20 -5z"/>
<path d="M1848 2873 c18 -2 45 -2 60 0 15 2 0 4 -33 4 -33 0 -45 -2 -27 -4z"/>
<path d="M1540 2852 c-58 -15 -62 -17 -31 -20 19 -2 37 1 40 6 3 5 29 14 56
19 28 6 39 11 25 11 -14 0 -54 -7 -90 -16z"/>
<path d="M1950 2861 c8 -6 17 -8 22 -5 4 3 37 -2 74 -11 37 -8 69 -13 71 -11
6 5 -129 36 -159 36 -18 0 -20 -2 -8 -9z"/>
<path d="M1360 2790 c-19 -11 -30 -19 -25 -19 6 0 26 8 45 19 19 11 31 19 25
19 -5 0 -26 -8 -45 -19z"/>
<path d="M1639 2797 c5 -5 24 -4 42 1 l34 10 -42 -1 c-23 -1 -38 -6 -34 -10z"/>
<path d="M2210 2795 c14 -8 30 -14 35 -14 6 0 -1 6 -15 14 -14 8 -29 14 -35
14 -5 0 1 -6 15 -14z"/>
<path d="M1568 2761 c-124 -79 -114 -191 22 -259 34 -17 81 -34 106 -38 31 -4
44 -11 45 -23 0 -14 1 -14 7 -1 9 18 122 24 122 6 0 -8 2 -8 8 0 4 6 29 18 56
27 47 16 51 16 70 -1 20 -16 20 -16 7 1 -8 9 -12 19 -10 20 2 2 20 15 40 29
20 15 40 24 44 20 3 -4 5 -2 4 3 -2 6 3 21 10 35 29 51 3 137 -51 169 -21 12
-20 11 4 -15 57 -61 55 -124 -4 -181 -38 -37 -132 -76 -165 -70 -13 2 -23 0
-23 -4 0 -5 -27 -9 -60 -9 -65 0 -163 18 -156 28 2 4 -7 8 -21 8 -61 4 -133
101 -119 160 8 31 59 85 101 107 17 9 25 16 19 17 -5 0 -31 -13 -56 -29z"/>
<path d="M1268 2744 c-38 -20 -36 -28 2 -9 17 9 30 18 30 20 0 7 -1 6 -32 -11z"/>
<path d="M1336 2748 c-10 -6 -33 -26 -50 -45 -96 -107 -102 -210 -19 -321 l24
-32 -74 -89 c-42 -49 -80 -98 -85 -108 -10 -17 -13 -16 -41 11 -16 16 -43 53
-58 82 l-28 53 30 31 c17 18 60 55 98 82 37 28 67 53 67 55 0 8 -87 -56 -138
-102 -29 -26 -55 -45 -58 -42 -8 8 -8 88 0 129 5 27 16 42 41 58 39 24 48 38
13 18 -13 -7 -26 -12 -30 -13 -4 0 -15 -11 -25 -25 -13 -19 -18 -46 -18 -111
0 -83 -2 -87 -34 -125 -19 -21 -51 -64 -71 -96 -21 -31 -40 -54 -44 -51 -3 4
-6 31 -6 62 0 70 -12 92 -28 56 -16 -35 -15 -46 2 -16 13 23 14 18 18 -55 4
-61 1 -87 -12 -114 -10 -19 -20 -46 -24 -60 -3 -14 5 0 20 30 l25 55 25 -52
c14 -29 45 -74 69 -101 l44 -49 -18 -49 c-10 -27 -27 -82 -37 -123 l-18 -74
-45 49 c-59 64 -105 156 -97 193 5 19 4 22 -4 11 -5 -8 -10 -22 -10 -32 0 -29
62 -139 109 -192 l46 -51 -3 -120 -3 -120 -42 45 c-23 25 -35 37 -27 25 8 -11
29 -36 46 -55 20 -22 36 -55 44 -88 7 -29 14 -51 17 -48 2 2 0 21 -6 42 -6 21
-9 39 -8 40 2 2 31 -16 65 -40 61 -42 201 -116 221 -116 6 0 13 -17 16 -37 4
-21 13 -61 21 -90 18 -64 18 -63 -3 -57 -12 3 -10 1 4 -8 23 -14 96 -116 96
-135 0 -6 7 -9 15 -5 9 3 13 1 9 -5 -7 -11 71 -48 80 -39 2 2 -6 7 -19 11 -41
12 -128 108 -128 140 0 4 15 4 33 1 28 -5 26 -4 -9 10 -39 14 -43 19 -57 72
-21 79 -28 122 -19 122 4 0 36 -9 72 -20 36 -11 117 -29 180 -40 63 -11 117
-24 121 -28 4 -4 9 -44 12 -89 l5 -83 -41 6 c-23 3 -82 15 -131 25 -49 10 -91
17 -93 15 -5 -5 110 -31 196 -45 36 -6 68 -16 72 -22 4 -7 10 -31 14 -55 3
-23 13 -48 21 -55 12 -10 12 -14 2 -20 -8 -5 5 -8 32 -8 38 1 40 2 16 8 -30 6
-43 31 -61 110 l-7 33 83 -6 c46 -4 129 -3 184 3 55 5 102 7 104 5 9 -8 -24
-96 -45 -119 l-23 -25 27 1 c15 0 21 3 14 6 -9 3 -7 12 8 31 11 14 25 45 31
69 6 24 14 43 18 43 3 0 7 42 9 92 2 51 4 94 5 95 2 1 47 12 102 23 54 12 137
35 183 52 46 16 85 28 87 26 5 -5 -12 -88 -27 -133 -10 -32 -22 -45 -58 -63
-38 -19 -28 -22 18 -5 21 8 13 -10 -26 -61 -23 -31 -59 -62 -97 -83 -95 -52
-53 -39 56 19 122 63 242 158 321 253 79 94 103 132 84 132 -9 0 -12 -7 -8
-16 3 -9 2 -13 -3 -9 -8 7 -55 -55 -55 -72 0 -30 -269 -260 -304 -260 -3 0 12
27 35 60 22 33 44 60 48 60 4 0 16 7 27 16 18 15 18 15 -3 5 -12 -6 -24 -11
-26 -11 -2 0 4 30 14 68 10 37 21 78 23 92 4 19 22 34 72 59 36 19 98 59 136
89 l70 55 -6 -34 c-4 -25 -4 -29 3 -14 5 11 10 28 10 39 1 10 17 41 37 70 29
41 30 44 6 17 l-30 -35 0 119 -1 120 35 50 c19 28 46 78 59 111 l24 59 3 -105
c4 -100 4 -99 5 30 1 74 -2 153 -6 175 l-9 40 -2 -35 c-1 -19 -3 -56 -5 -83
-3 -50 -47 -150 -89 -201 l-24 -29 -8 39 c-4 21 -20 77 -36 122 l-29 84 35 51
c20 29 44 76 54 105 l19 53 13 -31 c7 -17 15 -29 17 -26 2 2 -3 18 -11 35 -9
16 -17 54 -17 83 -2 51 -2 51 -8 14 l-6 -40 -29 44 c-16 24 -49 66 -75 93 -42
45 -46 54 -52 115 -4 37 -10 74 -13 83 -5 10 -2 16 9 16 8 0 36 -29 62 -64 41
-57 66 -83 47 -50 -70 118 -244 286 -364 351 -71 39 -62 26 13 -18 75 -44 179
-131 169 -141 -4 -5 -2 -5 5 -2 12 8 68 -52 57 -62 -3 -3 -13 4 -21 17 -9 12
-20 22 -26 22 -6 0 -1 -10 10 -22 27 -30 43 -81 43 -136 l0 -46 -32 31 c-18
16 -51 42 -73 57 l-40 28 35 -29 c19 -15 52 -44 74 -64 l39 -36 -31 -64 c-17
-35 -38 -73 -46 -83 -15 -19 -16 -18 -38 10 -12 16 -55 63 -95 105 -62 64 -71
78 -59 88 8 7 23 32 33 57 14 36 22 44 38 40 17 -4 18 -3 4 7 -13 10 -27 64
-33 127 0 8 -23 38 -51 65 -27 28 -37 36 -21 19 17 -20 25 -37 21 -45 -5 -7
-4 -10 2 -6 14 9 43 -57 43 -99 0 -31 -2 -34 -19 -24 -11 5 -23 10 -28 10 -4
-1 5 -8 20 -16 30 -16 30 -29 2 -84 -19 -36 -105 -114 -153 -139 l-41 -21 -55
79 c-30 44 -60 82 -66 86 -7 4 10 -21 35 -56 26 -35 53 -76 61 -91 l14 -27
-62 -19 c-35 -11 -80 -22 -100 -26 -41 -7 -36 -17 -69 117 -6 26 -13 46 -15
44 -3 -2 4 -40 14 -83 14 -57 16 -81 8 -86 -6 -4 -55 -8 -110 -8 l-98 0 5 33
c3 17 8 55 11 82 4 35 0 27 -12 -30 -16 -76 -18 -80 -42 -77 -30 3 -162 33
-172 38 -7 5 44 97 95 173 17 24 25 41 19 37 -5 -3 -36 -48 -68 -99 -32 -50
-59 -94 -60 -96 -7 -8 -53 11 -107 45 l-59 37 49 50 48 51 -49 -42 c-27 -24
-54 -41 -60 -39 -6 2 -26 25 -44 51 -27 41 -30 51 -20 64 9 11 9 14 1 9 -7 -4
-14 1 -18 13 -9 29 4 100 20 107 8 2 11 11 8 19 -3 8 18 36 50 69 31 30 55 55
54 55 -1 0 -11 -6 -21 -12z m1112 -522 l56 -68 -34 -29 c-54 -45 -168 -112
-180 -104 -5 3 -10 12 -10 18 0 7 -27 59 -59 117 l-59 105 52 28 c28 15 62 39
76 52 l24 25 39 -38 c21 -20 64 -68 95 -106z m-1033 47 c28 -14 51 -26 53 -28
2 -2 -107 -235 -115 -245 -6 -7 -163 75 -198 104 l-29 24 44 57 c25 32 65 80
89 107 l43 49 32 -21 c17 -11 54 -32 81 -47z m1301 -69 c47 -66 53 -94 30
-149 -18 -43 -74 -125 -85 -125 -4 0 -16 18 -26 39 -9 22 -39 72 -65 111 l-47
73 33 48 c18 27 38 65 44 85 l12 36 30 -29 c17 -15 50 -56 74 -89z m-1705 45
c7 -18 30 -54 52 -82 l40 -50 -19 -31 c-10 -17 -39 -70 -64 -119 l-47 -88 -41
47 c-22 26 -52 72 -67 101 l-26 53 37 57 c43 68 103 143 114 143 4 0 13 -14
21 -31z m1213 -124 l56 -110 -25 -12 c-32 -17 -203 -63 -235 -63 -24 0 -26 5
-49 126 -13 69 -21 128 -18 130 3 3 40 15 84 26 43 11 85 24 93 28 22 13 32
-1 94 -125z m-617 87 c95 -20 90 -6 68 -157 -8 -55 -15 -106 -15 -114 0 -11
-12 -12 -57 -7 -54 6 -209 42 -225 52 -8 5 12 59 66 178 32 71 38 78 58 72 13
-4 60 -15 105 -24z m327 -29 c5 -19 30 -151 40 -214 l6 -36 -46 -7 c-26 -3
-93 -6 -150 -6 l-104 0 1 43 c0 23 6 83 12 132 l12 90 95 6 c52 3 103 6 112 7
9 1 19 -6 22 -15z m624 -105 c21 -35 51 -86 65 -114 l26 -51 -37 -35 c-55 -52
-208 -148 -216 -136 -1 2 -8 23 -15 48 -7 25 -28 82 -46 127 l-33 82 61 35
c34 19 80 50 102 70 22 19 43 35 47 36 3 0 24 -28 46 -62z m-1367 -21 c37 -24
87 -52 112 -62 l44 -17 -40 -126 c-22 -70 -42 -129 -44 -132 -11 -14 -178 73
-257 135 -20 15 -20 16 3 63 38 79 104 191 110 187 3 -2 36 -23 72 -48z m1114
-109 c49 -120 75 -212 63 -220 -41 -26 -311 -98 -324 -86 -5 5 -45 271 -41
273 1 1 31 7 67 14 36 7 94 23 130 35 36 13 70 24 76 25 7 0 20 -18 29 -41z
m-805 -14 c58 -13 115 -24 128 -24 18 0 22 -5 22 -34 0 -47 -20 -240 -26 -245
-7 -7 -192 27 -272 51 -56 16 -71 25 -68 37 2 9 21 69 41 134 30 100 39 118
53 112 9 -4 64 -18 122 -31z m496 -109 c6 -44 14 -105 17 -137 l7 -56 -93 -7
c-50 -3 -132 -5 -182 -3 l-90 3 2 55 c0 30 4 92 8 137 l7 82 121 4 c67 2 138
3 157 3 l35 -1 11 -80z m716 -95 l22 -83 -49 -43 c-47 -40 -179 -125 -217
-140 -15 -5 -18 -1 -18 22 0 16 -11 75 -23 132 l-24 102 71 39 c39 22 96 60
126 84 l55 45 17 -38 c10 -21 28 -75 40 -120z m-1526 -6 l70 -33 -19 -113
c-28 -165 -17 -156 -117 -108 -46 23 -113 62 -147 86 -71 50 -68 36 -33 169
10 39 23 82 29 98 l11 27 67 -46 c38 -26 100 -62 139 -80z m1204 -18 c0 -3 7
-36 15 -75 8 -39 19 -96 23 -126 l9 -55 -56 -21 c-62 -24 -273 -79 -301 -79
-15 0 -18 14 -24 103 -4 56 -9 116 -12 133 l-6 31 89 18 c48 9 122 30 163 45
75 27 100 34 100 26z m-1030 -46 c36 -11 112 -27 169 -37 l103 -17 -6 -44 c-3
-25 -6 -85 -6 -135 l0 -90 -62 7 c-70 8 -208 38 -281 62 -44 15 -48 18 -43 42
3 15 12 73 22 130 10 57 22 102 28 102 6 0 40 -9 76 -20z m675 -210 l7 -107
-62 -6 c-35 -4 -125 -7 -201 -7 l-139 0 0 94 c0 51 3 113 6 137 l6 44 112 -3
c61 -2 143 1 181 5 l70 8 6 -29 c4 -15 10 -77 14 -136z m705 57 l0 -113 -42
-41 c-50 -47 -112 -90 -185 -127 l-53 -26 0 122 0 123 75 39 c41 22 101 61
132 87 32 26 61 48 66 48 4 1 7 -50 7 -112z m-1612 -59 l82 -39 0 -119 c0 -66
-2 -120 -5 -120 -14 0 -157 73 -211 108 -88 57 -94 69 -94 178 0 132 -1 131
78 77 37 -25 104 -64 150 -85z m1314 -85 c3 -38 2 -92 -1 -122 -6 -53 -6 -54
-56 -73 -59 -24 -268 -78 -299 -78 -20 0 -21 4 -21 119 l-1 119 86 17 c47 9
128 32 180 50 52 18 98 33 101 34 3 0 8 -29 11 -66z m-1082 4 c52 -14 130 -31
173 -38 l77 -12 0 -118 c0 -117 0 -119 -22 -119 -45 0 -202 32 -278 56 l-78
24 -4 58 c-2 31 -1 86 1 120 3 53 6 63 20 59 9 -3 59 -16 111 -30z m675 -286
c-3 -3 -93 -7 -199 -9 l-193 -4 -6 38 c-8 49 -9 142 -1 180 l5 29 122 -3 c67
-1 156 1 197 5 l75 8 3 -119 c1 -65 0 -121 -3 -125z m1 -98 c-4 -48 -9 -89
-11 -91 -10 -10 -230 -22 -296 -17 -76 7 -77 7 -83 37 -3 17 -6 56 -6 88 l0
57 103 -4 c81 -3 214 4 291 16 5 0 6 -37 2 -86z"/>
<path d="M1179 2688 c-84 -60 -162 -134 -223 -210 -71 -89 -142 -213 -126
-223 5 -3 10 2 10 11 0 25 74 149 130 219 55 67 143 147 214 195 41 28 54 40
43 40 -2 0 -24 -14 -48 -32z"/>
<path d="M2400 2620 c8 -5 20 -10 25 -10 6 0 3 5 -5 10 -8 5 -19 10 -25 10 -5
0 -3 -5 5 -10z"/>
<path d="M1340 2550 c-9 -6 -10 -10 -3 -10 6 0 15 5 18 10 8 12 4 12 -15 0z"/>
<path d="M1288 2524 c-38 -20 -36 -28 2 -9 17 9 30 18 30 20 0 7 -1 6 -32 -11z"/>
<path d="M1751 2494 c0 -11 3 -14 6 -6 3 7 2 16 -1 19 -3 4 -6 -2 -5 -13z"/>
<path d="M1434 2468 l-19 -23 23 19 c21 18 27 26 19 26 -2 0 -12 -10 -23 -22z"/>
<path d="M2190 2477 c0 -7 101 -89 105 -85 2 2 -20 23 -50 47 -30 23 -55 40
-55 38z"/>
<path d="M1881 2414 c0 -11 3 -14 6 -6 3 7 2 16 -1 19 -3 4 -6 -2 -5 -13z"/>
<path d="M1732 2400 c0 -14 2 -19 5 -12 2 6 2 18 0 25 -3 6 -5 1 -5 -13z"/>
<path d="M2740 2320 c11 -21 20 -46 20 -55 0 -8 4 -15 9 -15 5 0 14 -14 21
-30 7 -17 15 -29 17 -26 5 5 -75 166 -82 166 -3 0 4 -18 15 -40z"/>
<path d="M756 2094 c-4 -14 -5 -28 -3 -31 3 -2 8 8 11 23 4 14 5 28 3 31 -3 2
-8 -8 -11 -23z"/>
<path d="M2841 2074 c0 -11 3 -14 6 -6 3 7 2 16 -1 19 -3 4 -6 -2 -5 -13z"/>
<path d="M742 2030 c0 -14 2 -19 5 -12 2 6 2 18 0 25 -3 6 -5 1 -5 -13z"/>
<path d="M2852 2030 c0 -14 2 -19 5 -12 2 6 2 18 0 25 -3 6 -5 1 -5 -13z"/>
<path d="M726 1948 c-8 -67 -8 -103 0 -95 7 7 17 147 11 147 -2 0 -7 -24 -11
-52z"/>
<path d="M721 1714 c0 -21 4 -57 9 -79 6 -30 7 -21 3 35 -6 81 -13 107 -12 44z"/>
<path d="M2862 1625 c0 -16 2 -22 5 -12 2 9 2 23 0 30 -3 6 -5 -1 -5 -18z"/>
<path d="M741 1582 c-1 -7 4 -34 10 -58 8 -30 15 -41 20 -33 4 7 4 18 -1 24
-4 5 -13 26 -18 45 -6 19 -11 29 -11 22z"/>
<path d="M2850 1576 c0 -9 -6 -29 -14 -45 -8 -15 -11 -33 -7 -40 6 -9 13 5 21
38 7 29 9 55 6 58 -3 4 -6 -1 -6 -11z"/>
<path d="M791 1405 c0 -5 6 -21 14 -35 8 -14 14 -20 14 -15 0 6 -6 21 -14 35
-8 14 -14 21 -14 15z"/>
<path d="M2792 1385 c-17 -37 -14 -45 4 -12 9 16 14 31 11 33 -2 2 -9 -7 -15
-21z"/>
<path d="M860 1260 c6 -11 13 -20 16 -20 2 0 0 9 -6 20 -6 11 -13 20 -16 20
-2 0 0 -9 6 -20z"/>
<path d="M2730 1260 c-6 -11 -8 -20 -6 -20 3 0 10 9 16 20 6 11 8 20 6 20 -3
0 -10 -9 -16 -20z"/>
<path d="M888 1215 c6 -11 22 -33 35 -49 20 -25 25 -27 30 -12 4 9 3 15 -2 11
-5 -3 -24 12 -41 32 -18 21 -27 29 -22 18z"/>
<path d="M930 1215 c0 -5 5 -17 10 -25 5 -8 10 -10 10 -5 0 6 -5 17 -10 25 -5
8 -10 11 -10 5z"/>
<path d="M957 1137 c-12 -32 170 -200 296 -272 70 -40 57 -23 -15 21 -35 20
-83 53 -108 73 -51 40 -150 143 -145 151 2 3 -3 13 -10 23 -10 14 -14 15 -18
4z"/>
<path d="M2579 1093 c-13 -16 -12 -17 4 -4 16 13 21 21 13 21 -2 0 -10 -8 -17
-17z"/>
<path d="M1044 1071 c7 -11 46 -35 46 -28 0 3 -12 12 -26 22 -15 9 -23 12 -20
6z"/>
<path d="M2498 1044 c-38 -20 -36 -28 2 -9 17 9 30 18 30 20 0 7 -1 6 -32 -11z"/>
<path d="M1120 1025 c0 -7 81 -47 86 -43 2 3 -17 14 -41 26 -25 12 -45 20 -45
17z"/>
<path d="M2220 930 c-30 -11 -46 -19 -35 -19 11 0 43 9 70 19 65 24 37 24 -35
0z"/>
<path d="M2095 900 c-27 -7 -27 -8 -5 -8 14 0 36 4 50 8 20 6 21 8 5 8 -11 0
-33 -4 -50 -8z"/>
<path d="M1495 760 c11 -5 27 -9 35 -9 9 0 8 4 -5 9 -11 5 -27 9 -35 9 -9 0
-8 -4 5 -9z"/>
<path d="M2068 753 c7 -3 16 -2 19 1 4 3 -2 6 -13 5 -11 0 -14 -3 -6 -6z"/>
<path d="M1558 743 c6 -2 18 -2 25 0 6 3 1 5 -13 5 -14 0 -19 -2 -12 -5z"/>
<path d="M2028 743 c7 -3 16 -2 19 1 4 3 -2 6 -13 5 -11 0 -14 -3 -6 -6z"/>
<path d="M1613 733 c9 -2 23 -2 30 0 6 3 -1 5 -18 5 -16 0 -22 -2 -12 -5z"/>
<path d="M1878 723 c12 -2 32 -2 45 0 12 2 2 4 -23 4 -25 0 -35 -2 -22 -4z"/>
</g>
</svg>
