<?xml version="1.0" standalone="no"?>
<!DOCTYPE svg PUBLIC "-//W3C//DTD SVG 20010904//EN"
 "http://www.w3.org/TR/2001/REC-SVG-20010904/DTD/svg10.dtd">
<svg version="1.0" xmlns="http://www.w3.org/2000/svg"
 width="564.000000pt" height="546.000000pt" viewBox="0 0 564.000000 546.000000"
 preserveAspectRatio="xMidYMid meet">

<g transform="translate(0.000000,546.000000) scale(0.100000,-0.100000)"
fill="#000000" stroke="none">
<path d="M3397 5431 c17 -16 23 -48 43 -217 12 -110 24 -205 26 -211 8 -28 35
-10 80 55 76 106 197 266 207 274 6 3 16 4 24 1 7 -3 13 0 13 6 0 9 -21 17
-102 37 -17 3 -28 2 -28 -4 0 -5 12 -13 26 -16 18 -5 24 -11 20 -23 -8 -21
-180 -262 -187 -263 -5 0 -39 274 -39 319 0 20 4 22 25 17 14 -4 25 -2 25 3 0
8 -113 41 -141 41 -7 0 -4 -8 8 -19z"/>
<path d="M3018 5433 c-14 -3 -18 -15 -18 -54 0 -44 -3 -49 -25 -55 -31 -8 -33
-24 -3 -24 21 0 21 -2 14 -102 -5 -87 -4 -104 10 -120 24 -25 76 -24 100 3 19
22 19 22 -6 16 -49 -12 -53 -1 -51 125 l1 77 43 3 c52 4 55 22 4 26 l-39 3 4
55 c3 54 1 56 -34 47z"/>
<path d="M2720 5338 c-138 -71 -86 -290 66 -275 51 5 98 27 102 49 3 14 -2 14
-37 -4 -67 -33 -133 -2 -147 69 l-6 30 94 9 93 9 3 32 c2 23 -4 40 -25 63 -38
42 -84 48 -143 18z m97 -22 c7 -6 15 -25 19 -42 6 -30 4 -31 -33 -37 -21 -4
-53 -7 -70 -7 -29 0 -33 3 -33 26 0 68 70 105 117 60z"/>
<path d="M2265 5286 c-50 -23 -77 -60 -83 -115 -10 -104 60 -181 151 -167 48
8 107 42 107 62 0 11 -7 9 -32 -6 -39 -23 -95 -26 -124 -5 -20 13 -51 72 -43
79 2 2 42 13 89 25 46 12 88 25 93 30 15 15 -20 79 -52 95 -36 19 -66 20 -106
2z m71 -24 c13 -8 34 -46 34 -61 0 -10 -34 -21 -107 -36 -32 -6 -33 -6 -33 27
0 48 24 78 63 78 18 0 37 -4 43 -8z"/>
<path d="M1993 5201 c-49 -30 -54 -41 -16 -38 25 2 29 -4 55 -71 26 -67 27
-75 14 -106 -9 -22 -24 -37 -46 -44 -28 -10 -34 -9 -55 12 -14 14 -35 61 -51
112 -15 49 -29 91 -30 93 -6 7 -84 -49 -84 -59 0 -6 10 -8 23 -5 21 6 25 0 52
-77 36 -103 62 -133 112 -125 37 6 93 51 93 74 0 7 5 13 10 13 6 0 10 -9 10
-21 0 -13 5 -19 13 -15 6 2 29 10 50 17 41 13 52 33 12 23 -22 -5 -27 -1 -43
37 -11 24 -29 79 -42 122 -13 43 -26 79 -29 81 -3 2 -25 -9 -48 -23z"/>
<path d="M3956 5210 c-70 -27 -69 -33 4 -25 65 7 94 20 84 36 -8 13 -34 10
-88 -11z"/>
<path d="M3847 5140 c-75 -23 -125 -145 -87 -214 30 -58 150 -97 180 -60 14
16 13 17 -4 11 -25 -10 -89 9 -110 32 -21 23 -31 90 -17 110 7 11 22 8 84 -18
91 -37 104 -38 118 -7 25 53 -10 121 -74 145 -32 13 -51 13 -90 1z m97 -31
c18 -14 26 -30 26 -52 0 -57 -10 -61 -76 -34 -32 14 -60 30 -62 37 -6 16 48
70 69 70 9 0 28 -9 43 -21z"/>
<path d="M4155 5052 c-17 -31 -25 -36 -48 -34 -31 4 -36 -11 -7 -24 19 -9 18
-13 -26 -89 -25 -44 -46 -91 -46 -104 -1 -42 52 -72 96 -55 20 8 11 24 -14 24
-36 0 -33 36 10 115 23 41 44 75 46 75 3 0 19 -7 36 -16 46 -24 58 -2 13 26
-39 24 -40 16 10 93 l17 27 -33 0 c-29 0 -37 -6 -54 -38z"/>
<path d="M1664 5066 c-3 -8 -20 -18 -37 -21 -45 -10 -73 -30 -107 -77 -48 -66
-36 -146 29 -201 56 -47 145 -30 171 33 7 16 16 30 19 30 4 0 25 -34 47 -75
38 -74 38 -76 20 -90 -38 -29 -9 -24 52 8 63 33 81 52 38 41 -21 -5 -28 1 -55
48 -57 98 -151 286 -151 302 0 20 -19 21 -26 2z m24 -128 c34 -62 38 -76 29
-101 -5 -17 -23 -35 -42 -44 -29 -14 -35 -14 -67 1 -61 29 -100 135 -65 178
18 23 48 37 79 38 22 0 32 -10 66 -72z"/>
<path d="M1240 4971 c-7 -15 -6 -24 6 -36 19 -18 33 -16 48 7 7 12 6 21 -3 32
-18 22 -38 20 -51 -3z"/>
<path d="M4428 4933 c-58 -6 -45 -20 23 -26 67 -6 92 -1 86 17 -4 12 -49 16
-109 9z"/>
<path d="M1312 4851 c-38 -47 -40 -56 -10 -40 19 10 25 8 49 -22 15 -19 42
-58 60 -87 28 -46 31 -57 20 -74 -7 -11 -11 -21 -9 -23 5 -5 117 69 117 77 1
4 -11 6 -26 5 -27 -2 -44 19 -156 186 -11 17 -15 16 -45 -22z"/>
<path d="M4272 4870 c-61 -37 -95 -124 -72 -181 23 -54 136 -117 163 -90 8 8
2 13 -21 17 -52 11 -92 55 -92 101 0 22 6 47 13 57 13 18 18 16 87 -33 40 -28
79 -51 86 -51 7 0 20 20 29 44 16 41 16 46 0 80 -11 23 -31 42 -59 56 -53 25
-92 25 -134 0z m141 -28 c20 -17 22 -64 5 -91 -14 -22 -28 -17 -90 31 -43 33
-41 53 5 73 33 14 52 11 80 -13z"/>
<path d="M1111 4714 c-21 -18 -33 -38 -37 -66 -6 -33 -10 -39 -26 -34 -49 12
-108 -38 -108 -92 0 -35 0 -35 -20 -17 -11 10 -21 16 -23 14 -2 -2 -15 -20
-29 -40 -28 -38 -27 -60 2 -34 16 14 23 9 89 -60 72 -76 80 -92 59 -113 -6 -6
-8 -15 -5 -19 4 -4 32 17 62 47 56 56 64 71 24 49 -21 -11 -28 -7 -86 55 -68
71 -76 97 -45 136 29 36 67 29 119 -21 68 -67 87 -97 73 -114 -7 -8 -10 -19
-8 -24 1 -6 27 13 56 40 54 52 69 81 28 54 -23 -15 -25 -14 -85 51 -67 73 -77
108 -41 144 36 36 60 26 140 -59 l75 -79 37 33 c38 32 42 54 6 32 -17 -11 -27
-3 -91 66 -83 88 -112 97 -166 51z"/>
<path d="M4540 4733 c0 -3 7 -14 15 -23 14 -16 13 -21 -11 -51 -15 -19 -48
-55 -73 -81 -43 -46 -46 -47 -68 -33 -43 29 -23 -3 34 -54 56 -48 85 -61 49
-22 -17 19 -17 21 2 49 29 40 109 112 125 112 21 0 45 -23 49 -47 3 -22 3 -22
33 4 l29 26 -24 19 c-19 16 -33 18 -64 13 l-40 -6 24 25 c13 14 22 27 19 28
-22 14 -89 48 -93 48 -4 0 -6 -3 -6 -7z"/>
<path d="M2386 4619 c-17 -42 -17 -42 20 -136 20 -52 32 -98 28 -103 -5 -4
-28 -10 -50 -14 l-41 -6 -23 63 c-12 34 -38 94 -58 132 l-35 70 -13 -30 c-21
-48 -17 -70 31 -165 l45 -90 -27 -11 c-14 -5 -45 -12 -69 -16 -34 -4 -48 -1
-80 21 l-39 26 -7 -22 c-13 -49 -9 -65 22 -78 50 -21 53 -40 19 -109 -28 -55
-69 -101 -90 -101 -5 0 -9 15 -9 33 0 41 -30 106 -61 133 -25 23 -97 50 -106
40 -3 -3 -3 -21 1 -39 6 -31 11 -36 50 -46 61 -15 72 -31 57 -84 -23 -77 -51
-115 -98 -134 -56 -24 -55 -37 3 -29 102 14 125 24 143 67 15 36 19 39 58 39
87 0 114 30 129 137 6 50 7 51 51 64 33 9 47 19 55 38 8 24 10 24 19 8 6 -10
18 -16 27 -13 9 3 36 10 58 15 36 10 45 18 73 70 l31 59 -40 126 c-23 69 -45
126 -49 126 -5 0 -16 -19 -25 -41z"/>
<path d="M3101 4641 l-25 -19 30 -26 c16 -14 31 -25 34 -25 3 0 18 10 33 23
l29 23 -27 22 c-34 26 -43 26 -74 2z"/>
<path d="M3334 4592 c-29 -25 -34 -39 -59 -162 -15 -74 -28 -139 -29 -145 -2
-5 40 -25 92 -43 87 -30 96 -32 117 -18 23 15 24 14 27 -11 2 -19 15 -33 48
-51 41 -23 48 -24 90 -13 68 18 87 35 121 109 44 96 70 164 66 169 -3 2 -22
-3 -44 -12 -38 -15 -42 -21 -78 -115 -20 -55 -40 -100 -44 -100 -15 0 -101 60
-101 70 0 7 12 31 26 56 14 24 23 44 19 44 -20 0 -67 -35 -80 -60 -9 -17 -19
-30 -24 -30 -5 0 -34 11 -65 25 -31 14 -63 25 -71 25 -7 0 -16 4 -19 9 -3 5 6
68 20 141 14 73 24 134 22 135 -2 2 -17 -9 -34 -23z"/>
<path d="M4854 4605 c-10 -25 4 -45 30 -45 13 0 26 7 30 15 9 25 -5 45 -30 45
-14 0 -27 -7 -30 -15z"/>
<path d="M3545 4546 c-16 -12 -17 -16 -6 -30 15 -18 61 -22 61 -5 0 15 -19 49
-28 49 -5 0 -17 -6 -27 -14z"/>
<path d="M4740 4554 c0 -3 5 -14 11 -25 9 -17 1 -28 -56 -82 -82 -76 -90 -81
-115 -67 -31 16 -24 2 22 -49 52 -57 59 -60 52 -23 -5 27 1 35 84 108 50 43
90 81 91 84 0 3 -20 17 -44 32 -25 15 -45 25 -45 22z"/>
<path d="M3147 4513 l-27 -29 16 -48 c9 -26 15 -48 13 -50 -2 -2 -31 3 -64 10
-33 7 -96 16 -141 20 l-81 7 -21 -35 c-12 -20 -22 -38 -22 -40 0 -3 20 -8 45
-10 51 -6 84 -26 63 -39 -20 -13 -114 -22 -151 -15 -90 17 -103 99 -29 179 20
21 22 27 9 27 -21 0 -60 -51 -92 -123 -23 -50 -25 -61 -15 -92 15 -45 60 -71
89 -53 16 10 23 9 38 -5 17 -14 22 -15 46 -2 15 8 34 12 43 8 25 -9 93 28 115
64 24 38 21 37 116 19 l72 -14 21 55 c24 65 25 106 2 156 l-17 38 -28 -28z"/>
<path d="M1979 4494 c-15 -40 -11 -51 19 -57 20 -4 32 -1 45 15 25 30 21 43
-19 56 -33 10 -36 9 -45 -14z"/>
<path d="M3478 4499 c-17 -9 -17 -12 -2 -35 12 -17 22 -23 36 -18 13 4 28 -2
44 -17 21 -20 27 -21 48 -9 23 12 24 14 9 37 -13 19 -22 23 -44 18 -21 -5 -30
-2 -39 14 -12 23 -26 26 -52 10z"/>
<path d="M4881 4388 c10 -19 8 -25 -20 -49 -18 -15 -57 -44 -87 -64 -53 -37
-55 -37 -74 -20 -34 31 -22 -3 21 -61 41 -54 62 -67 39 -24 -6 12 -10 23 -8
25 47 41 147 105 165 105 30 0 73 -42 73 -70 0 -36 -16 -55 -94 -109 -42 -29
-76 -55 -76 -59 0 -4 14 -23 30 -42 29 -34 30 -34 24 -8 -5 23 1 31 53 68 96
70 113 90 113 128 0 44 -54 102 -96 102 l-28 0 21 22 22 21 -37 28 c-45 34
-57 36 -41 7z"/>
<path d="M744 4320 c-81 -40 -111 -156 -58 -220 36 -42 74 -60 127 -60 85 0
136 70 129 177 -4 45 -95 123 -144 123 -7 0 -31 -9 -54 -20z m81 -49 c98 -44
126 -139 54 -177 -66 -34 -199 47 -199 121 0 25 55 75 82 75 13 0 41 -9 63
-19z"/>
<path d="M3875 4290 c-36 -18 -47 -33 -98 -136 l-58 -116 41 23 c41 23 102
104 149 196 31 62 29 64 -34 33z"/>
<path d="M1615 4214 c6 -45 13 -56 98 -139 69 -68 92 -86 95 -72 8 41 -93 184
-169 238 l-31 22 7 -49z"/>
<path d="M2730 4185 l-22 -23 29 -16 c27 -13 31 -13 45 0 14 14 19 14 48 -1
30 -15 33 -15 51 1 25 22 24 28 -7 49 -24 16 -27 16 -45 -1 -19 -17 -22 -17
-48 -1 -27 16 -29 16 -51 -8z"/>
<path d="M4098 4028 c5 -38 16 -48 55 -48 28 0 33 12 21 58 -5 18 -13 22 -43
22 -37 0 -37 -1 -33 -32z"/>
<path d="M5093 4053 c-24 -9 -14 -30 11 -26 20 4 29 -2 45 -28 26 -43 26 -52
-2 -85 l-23 -26 -43 51 c-58 69 -111 82 -158 38 -13 -11 -23 -30 -23 -42 0
-30 33 -70 70 -85 34 -14 36 -18 14 -34 -14 -11 -14 -15 2 -49 20 -41 37 -49
32 -15 -2 18 12 30 87 72 96 55 114 78 101 132 -4 16 -25 46 -47 66 -40 39
-44 40 -66 31z m-48 -109 c13 -8 31 -26 40 -40 15 -23 14 -25 -16 -43 -35 -21
-64 -18 -96 12 -58 52 6 115 72 71z"/>
<path d="M544 4030 c-12 -5 -31 -21 -44 -37 -18 -23 -21 -36 -16 -76 5 -44 4
-47 -14 -37 -27 14 -26 14 -39 -34 -15 -60 -14 -62 9 -41 20 18 22 18 58 1 20
-10 63 -33 94 -53 52 -31 57 -37 47 -55 -6 -11 -8 -22 -5 -26 7 -7 6 -9 44 60
35 64 42 93 14 58 l-19 -23 -76 42 c-43 23 -82 51 -88 62 -23 44 16 109 66
109 11 0 57 -22 102 -50 l82 -49 25 42 c27 44 26 61 -1 34 -15 -15 -22 -13
-97 27 -95 51 -114 57 -142 46z"/>
<path d="M1475 4006 c-40 -40 -47 -169 -11 -204 13 -13 11 -20 -16 -53 -17
-22 -39 -39 -48 -39 -9 0 -54 16 -100 35 -86 35 -110 41 -110 28 0 -15 40 -73
50 -73 6 0 10 -30 10 -73 0 -66 3 -77 31 -115 17 -23 34 -42 38 -42 13 0 101
98 101 112 0 7 -7 22 -15 32 -23 30 -18 35 22 24 36 -10 39 -9 63 22 14 18 71
84 127 145 l102 112 -10 39 c-6 22 -13 43 -16 47 -2 4 -32 -22 -66 -57 -52
-54 -69 -66 -104 -71 -35 -6 -43 -4 -43 9 0 24 70 97 109 113 44 19 26 33 -42
33 -37 0 -53 -5 -72 -24z m-130 -347 c6 -6 -1 -19 -18 -36 l-27 -28 0 27 c0
14 -3 34 -7 43 -5 14 -2 16 18 10 13 -4 28 -11 34 -16z"/>
<path d="M3953 3980 c-85 -17 -153 -68 -153 -114 0 -28 46 -102 78 -125 47
-33 113 -45 154 -28 l36 15 36 -40 c19 -23 34 -44 31 -48 -2 -4 10 -29 28 -56
18 -26 45 -71 60 -99 16 -27 34 -54 41 -60 7 -5 23 -44 36 -85 18 -57 35 -88
70 -126 55 -61 79 -123 54 -141 -9 -7 -20 -14 -25 -15 -4 -2 -5 -32 -2 -66 l6
-64 54 -35 53 -36 68 12 c37 7 98 20 137 30 l70 17 -45 27 -45 26 -100 -28
c-112 -31 -116 -30 -112 38 2 38 4 41 32 41 l30 0 0 148 c0 160 -3 170 -56
198 -16 8 -38 14 -50 14 l-22 0 21 -23 c17 -18 22 -35 22 -82 0 -57 0 -58 -20
-40 -23 21 -55 103 -65 167 -7 44 -5 47 24 64 17 10 31 22 31 26 0 13 -75 9
-88 -4 -9 -9 -15 -8 -27 8 -23 30 -18 38 32 58 44 18 45 20 22 28 -13 5 -42 7
-64 4 -38 -6 -41 -5 -62 33 -13 22 -23 42 -23 45 0 2 17 7 38 11 70 12 71 25
2 25 l-65 0 -29 48 c-26 43 -28 51 -18 87 6 22 9 41 8 43 -2 1 -20 -1 -41 -6
-34 -7 -39 -12 -57 -60 -11 -30 -26 -56 -34 -59 -20 -7 -93 45 -116 82 -26 43
-23 80 8 104 15 12 32 21 38 21 7 0 21 7 32 15 10 8 17 14 14 14 -3 -1 -24 -5
-47 -9z"/>
<path d="M5382 3798 c-27 -27 5 -73 38 -53 16 10 12 52 -6 59 -20 8 -18 8 -32
-6z"/>
<path d="M5252 3768 c3 -25 -33 -47 -138 -83 -55 -19 -57 -19 -70 0 -8 10 -16
16 -19 14 -7 -8 47 -139 56 -134 4 3 5 14 2 24 -4 14 3 24 25 35 25 13 138 59
195 79 16 6 15 10 -10 46 -32 45 -46 52 -41 19z"/>
<path d="M1128 3764 c-21 -11 -28 -22 -28 -44 0 -22 -7 -33 -29 -44 -23 -12
-27 -20 -23 -41 2 -14 9 -28 14 -31 16 -10 58 25 58 49 0 12 13 33 29 47 27
23 29 27 18 52 -11 26 -13 26 -39 12z"/>
<path d="M406 3699 c-58 -17 -97 -74 -99 -146 -1 -74 58 -133 140 -140 58 -5
103 19 129 68 24 46 15 131 -17 165 -43 47 -104 68 -153 53z m100 -73 c54 -25
64 -39 64 -87 0 -45 -31 -69 -89 -69 -87 0 -151 39 -151 92 0 84 75 111 176
64z"/>
<path d="M5326 3586 c5 -23 1 -26 -73 -49 -126 -39 -131 -40 -143 -17 -23 42
-27 17 -8 -47 24 -80 38 -100 38 -55 0 30 3 32 66 52 77 24 103 25 129 7 14
-11 17 -21 12 -46 -7 -32 -7 -32 26 -26 41 9 41 9 33 38 -3 15 -20 31 -43 42
l-38 18 25 11 c14 5 26 11 28 12 6 4 -43 84 -51 84 -4 0 -5 -11 -1 -24z"/>
<path d="M246 3403 c-12 -12 -6 -71 9 -83 24 -20 18 -32 -13 -26 -27 6 -27 6
-25 -46 2 -68 1 -68 18 -36 l15 26 67 -15 c119 -28 138 -37 135 -67 -6 -56 16
-22 35 54 20 79 17 104 -5 55 -11 -23 -16 -25 -49 -19 -21 4 -62 15 -90 26
-64 24 -81 59 -43 90 13 10 21 20 19 22 -11 9 -68 24 -73 19z"/>
<path d="M1097 3362 c-15 -16 -15 -21 -1 -47 35 -69 108 -115 150 -96 35 16
42 57 13 87 -12 13 -18 24 -12 24 20 0 61 -58 78 -111 16 -49 16 -67 -1 -148
-11 -52 12 -31 47 43 41 86 39 116 -13 172 -57 62 -123 94 -191 94 -39 0 -58
-5 -70 -18z m107 -51 c9 -13 -3 -39 -20 -45 -17 -6 -29 17 -20 39 6 17 32 20
40 6z"/>
<path d="M5244 3316 c-48 -22 -74 -62 -74 -114 0 -51 34 -132 56 -132 18 0 18
3 -6 42 -30 49 -26 84 15 125 52 52 65 43 86 -61 10 -48 20 -90 23 -93 9 -9
52 6 79 27 51 40 45 130 -13 185 -35 34 -115 44 -166 21z m164 -53 c35 -30 38
-68 8 -97 -25 -26 -60 -34 -70 -17 -4 5 -9 37 -12 70 l-7 61 30 0 c17 0 40 -8
51 -17z"/>
<path d="M945 3151 c44 -41 37 -39 230 -57 67 -7 69 -6 55 11 -31 38 -115 62
-275 79 l-50 6 40 -39z"/>
<path d="M200 3123 c0 -15 -9 -45 -20 -66 -22 -41 -27 -116 -9 -150 31 -61
111 -77 148 -30 23 28 23 28 40 -4 12 -23 61 -33 61 -13 0 19 17 10 28 -15 17
-37 54 -51 92 -35 36 15 58 52 66 114 12 86 -38 163 -112 173 -60 7 -74 -10
-84 -100 -10 -85 -14 -97 -35 -97 -17 0 -38 36 -30 50 3 5 1 27 -5 49 -12 44
-51 81 -86 81 -18 0 -23 6 -26 32 -4 41 -28 50 -28 11z m355 -97 c33 -33 41
-72 24 -120 -10 -28 -22 -43 -40 -50 -35 -12 -76 -1 -89 24 -14 27 -2 137 17
156 22 21 61 17 88 -10z m-251 -17 c34 -26 34 -62 0 -88 -52 -41 -126 -14
-126 44 0 58 74 85 126 44z"/>
<path d="M879 2996 l35 -36 108 0 108 0 -6 -42 c-11 -74 -18 -80 -80 -76 -30
1 -54 0 -54 -3 0 -12 55 -44 85 -49 l30 -5 3 -85 c3 -99 -4 -110 -77 -110
l-46 0 30 -20 c17 -11 47 -20 67 -20 41 0 46 -8 48 -75 3 -75 1 -83 -22 -87
-30 -4 -74 -84 -65 -119 4 -14 39 -59 79 -101 l73 -76 -54 -11 c-35 -7 -60 -7
-72 -1 -10 6 -29 10 -43 10 -20 0 -26 -5 -26 -21 0 -12 -9 -37 -20 -55 l-21
-33 38 -10 c29 -8 40 -7 53 4 25 23 169 88 182 82 7 -3 21 -26 31 -51 19 -45
19 -47 -2 -86 -28 -55 -27 -60 17 -60 33 0 39 4 57 38 25 47 49 50 115 17 75
-38 100 -66 100 -112 0 -27 3 -34 11 -26 20 20 1 150 -26 181 -20 23 -32 27
-96 30 l-74 4 -26 61 c-38 88 -119 349 -119 383 0 69 -12 104 -37 110 l-24 6
20 22 c18 19 21 35 21 103 0 72 -2 82 -22 96 l-23 15 22 18 c14 13 23 35 27
69 6 48 5 52 -37 100 l-44 49 -139 4 -139 4 34 -36z m305 -753 c16 -49 31 -95
34 -103 9 -26 -76 61 -88 91 -9 21 -9 36 0 63 6 20 15 36 19 36 4 0 20 -39 35
-87z"/>
<path d="M1426 2870 c6 -6 203 -154 440 -330 l429 -320 38 113 c20 61 38 117
40 123 1 7 -128 105 -288 218 l-289 206 -190 0 c-128 0 -187 -3 -180 -10z"/>
<path d="M3593 2675 l-261 -204 36 -111 c20 -60 40 -110 45 -110 7 0 564 423
780 592 l49 38 -194 -1 -193 0 -262 -204z"/>
<path d="M5215 2785 c-7 -80 -2 -119 10 -81 3 9 7 23 10 32 4 13 18 14 92 8
49 -4 89 -8 91 -9 4 -4 -14 -234 -19 -239 -2 -2 -42 0 -88 4 -82 7 -107 19
-96 47 2 7 0 15 -4 17 -10 7 -21 -69 -20 -133 l1 -46 14 34 c15 33 15 33 67
27 29 -3 104 -8 167 -12 63 -4 123 -11 133 -16 10 -5 17 -20 17 -35 0 -17 4
-23 9 -17 11 11 19 174 9 174 -5 0 -8 -9 -8 -20 0 -30 -31 -40 -105 -33 l-67
6 7 106 c9 148 1 138 92 129 43 -3 79 -7 81 -7 1 -1 2 -12 2 -26 0 -14 5 -25
10 -25 6 0 10 28 10 63 0 34 3 72 6 85 4 13 2 22 -5 22 -6 0 -11 -8 -11 -19 0
-37 -19 -40 -160 -31 -211 15 -220 17 -220 45 0 13 -4 26 -9 29 -5 4 -12 -32
-16 -79z"/>
<path d="M1297 2792 l-27 -28 31 -30 31 -29 19 24 c23 28 24 40 3 69 -20 28
-25 28 -57 -6z"/>
<path d="M4517 2782 c-57 -10 -96 -20 -94 -27 2 -5 21 -16 43 -24 31 -10 60
-11 144 -3 143 15 153 19 104 48 -44 27 -60 27 -197 6z"/>
<path d="M397 2755 c-5 -14 -68 -51 -202 -118 -107 -53 -195 -101 -195 -105 0
-4 71 -34 158 -67 215 -80 262 -101 262 -119 0 -9 5 -16 11 -16 6 0 8 7 5 16
-3 9 -6 40 -6 70 0 34 -4 53 -10 49 -5 -3 -10 -15 -10 -25 0 -10 -4 -21 -9
-24 -9 -6 -98 22 -105 33 -2 3 -7 42 -11 86 l-7 80 46 23 c57 27 76 28 76 3 0
-11 5 -23 10 -26 12 -7 13 110 1 140 -8 20 -8 20 -14 0z m-137 -225 c0 -38 -2
-70 -4 -70 -2 0 -35 11 -72 25 -38 14 -76 28 -84 31 -15 6 121 82 148 84 8 0
12 -20 12 -70z"/>
<path d="M1266 2612 c-14 -26 -13 -30 6 -49 16 -17 18 -24 9 -41 -16 -30 -14
-38 14 -56 25 -17 26 -16 40 16 13 30 12 34 -5 46 -17 12 -17 16 -4 47 13 32
12 35 -8 49 -30 22 -35 20 -52 -12z"/>
<path d="M4412 2538 c-5 -7 -16 -48 -23 -91 -12 -70 -11 -79 4 -94 16 -16 16
-18 -5 -29 -11 -6 -26 -27 -32 -45 -10 -32 -14 -34 -63 -39 -62 -6 -93 -31
-93 -74 0 -33 25 -78 54 -99 17 -13 16 -17 -14 -70 -26 -46 -29 -60 -20 -76 9
-19 8 -21 -15 -21 -14 0 -25 -4 -25 -9 0 -4 -12 -25 -26 -46 -20 -31 -24 -45
-19 -75 6 -37 6 -38 -50 -70 -51 -29 -56 -35 -50 -59 3 -14 14 -37 23 -49 20
-28 132 -76 145 -63 13 13 28 91 22 115 -4 11 -13 38 -22 58 -15 35 -14 38 7
72 26 43 33 44 48 11 24 -51 109 -19 139 53 13 31 12 37 -7 78 -20 40 -40 58
-40 35 0 -15 -30 -41 -46 -41 -10 0 -5 18 20 63 18 35 35 69 37 76 4 10 21 2
59 -27 72 -55 90 -59 90 -21 0 41 -24 95 -65 145 l-35 43 17 35 c20 38 28 41
161 52 l82 7 -40 29 c-38 28 -43 29 -105 23 -75 -8 -72 -12 -53 91 11 62 12
63 47 66 l36 4 -45 21 c-66 31 -86 35 -98 21z m-106 -405 c-15 -13 -31 -23
-36 -23 -17 0 11 48 34 58 32 14 34 -8 2 -35z m139 -43 c20 -45 16 -57 -14
-40 -16 8 -21 20 -21 51 0 48 10 45 35 -11z m-272 -471 c-5 -5 -18 -7 -28 -3
-16 6 -15 8 6 20 25 13 40 1 22 -17z"/>
<path d="M5177 2338 c-30 -23 -39 -65 -22 -105 20 -47 19 -56 -5 -50 -16 4
-22 -2 -31 -35 -12 -45 -5 -61 14 -34 11 16 18 15 115 -5 l102 -23 28 21 c34
25 46 68 38 127 -5 33 -13 47 -27 51 -30 10 -35 -3 -11 -25 26 -24 27 -41 7
-80 -15 -30 -54 -48 -74 -35 -6 3 -11 39 -11 80 0 70 -2 75 -31 99 -33 28 -66
33 -92 14z m87 -64 c20 -20 23 -126 4 -120 -7 3 -26 7 -41 11 -36 7 -62 61
-47 100 7 19 17 25 39 25 16 0 37 -7 45 -16z"/>
<path d="M2552 2195 c-18 -64 -32 -122 -32 -129 0 -8 69 -65 153 -127 83 -62
157 -116 163 -121 7 -5 74 40 182 123 l170 130 -29 107 c-16 59 -29 110 -29
115 0 18 -28 1 -135 -83 -63 -49 -118 -90 -122 -90 -5 0 -69 43 -142 95 -74
52 -138 95 -141 95 -4 0 -21 -52 -38 -115z"/>
<path d="M440 2145 c0 -3 5 -14 12 -24 6 -10 8 -25 5 -34 -5 -15 -87 -43 -154
-54 -30 -5 -32 -3 -38 31 -5 22 -13 36 -22 36 -15 0 -15 -10 -1 -70 2 -8 -15
-17 -45 -26 -61 -16 -65 -20 -41 -45 19 -18 23 -19 61 -5 38 13 42 13 63 -7
l22 -22 -6 26 c-5 24 -2 26 67 44 127 32 137 38 137 84 0 30 -6 44 -22 55 -23
16 -38 20 -38 11z"/>
<path d="M5072 2015 c-36 -75 -25 -151 25 -174 45 -21 61 -13 106 49 42 60 69
74 95 48 31 -31 -6 -104 -56 -110 l-27 -3 32 -18 32 -17 22 31 c13 18 24 52
27 80 4 41 1 51 -21 73 -47 47 -88 32 -142 -54 -26 -41 -59 -52 -83 -28 -21
21 -14 74 14 107 21 25 30 29 55 24 16 -3 29 -3 29 1 0 6 -66 36 -79 36 -4 0
-17 -20 -29 -45z"/>
<path d="M520 1931 c0 -31 -14 -38 -213 -110 l-27 -11 32 -43 c32 -43 58 -55
38 -17 -13 24 0 33 81 64 57 21 68 23 95 11 19 -8 36 -25 44 -45 13 -31 12
-34 -13 -56 -14 -12 -63 -37 -109 -54 -46 -18 -84 -33 -86 -35 -5 -4 52 -84
60 -85 4 0 6 12 5 27 -2 24 5 29 77 59 43 18 87 41 97 50 38 35 12 122 -43
147 -31 13 -37 27 -12 27 17 0 15 19 -6 75 -13 33 -20 32 -20 -4z"/>
<path d="M4975 1781 c-60 -89 -35 -191 47 -191 15 0 40 19 74 55 55 59 64 63
88 39 22 -21 20 -56 -4 -82 -21 -22 -31 -26 -62 -23 -27 3 -22 -14 7 -27 38
-18 42 -16 70 31 39 68 33 127 -16 152 -38 20 -66 8 -113 -49 -39 -48 -64 -57
-90 -30 -24 23 -19 58 11 94 23 27 31 31 60 27 41 -7 42 3 2 26 -42 23 -45 22
-74 -22z"/>
<path d="M1387 1764 c-34 -18 -47 -50 -47 -111 l0 -46 90 6 c97 7 150 27 150
55 0 31 -40 83 -75 98 -44 18 -82 17 -118 -2z m105 -87 c12 -23 3 -33 -41 -42
l-34 -7 7 42 c4 24 9 47 12 52 7 11 41 -18 56 -45z"/>
<path d="M1214 1599 c3 -17 6 -35 6 -40 0 -4 12 -9 28 -11 22 -2 28 -9 32 -38
4 -31 9 -35 38 -38 29 -3 32 -1 32 25 0 33 -16 53 -41 53 -11 0 -18 12 -23 40
-6 38 -8 40 -42 40 -36 0 -36 -1 -30 -31z"/>
<path d="M640 1612 c0 -3 8 -14 17 -24 13 -15 15 -23 7 -36 -9 -15 -138 -99
-155 -101 -3 -1 -13 15 -22 34 -11 24 -21 33 -32 29 -13 -5 -12 -11 6 -41 12
-19 20 -36 18 -37 -2 -2 -23 -13 -46 -25 -48 -24 -53 -35 -23 -51 16 -9 29 -6
60 11 39 22 40 22 61 4 20 -19 20 -19 17 9 -3 27 3 33 76 75 44 25 84 54 90
63 16 26 -15 84 -48 90 -14 3 -26 3 -26 0z"/>
<path d="M4855 1555 c-20 -19 -25 -34 -25 -75 0 -51 -6 -60 -28 -38 -6 6 -13
10 -14 7 -2 -2 -14 -19 -26 -37 -26 -37 -24 -50 5 -32 16 10 31 5 99 -39 93
-58 131 -65 169 -27 22 22 45 81 45 118 0 10 -9 22 -20 28 -15 8 -20 8 -20 -3
0 -7 5 -18 11 -24 15 -15 -6 -70 -32 -83 -23 -13 -66 -13 -74 0 -4 6 3 35 14
66 28 74 27 100 -8 135 -36 35 -64 37 -96 4z m79 -54 c14 -15 16 -29 11 -59
-3 -22 -12 -47 -18 -56 -11 -14 -15 -13 -44 5 -31 20 -39 38 -34 83 4 46 54
62 85 27z"/>
<path d="M763 1423 c2 -25 -10 -36 -99 -96 l-102 -69 39 -35 c38 -35 65 -40
39 -8 -17 20 -10 27 90 94 69 46 76 49 92 34 34 -30 30 -5 -8 51 -41 62 -54
69 -51 29z"/>
<path d="M4677 1298 c-25 -29 -44 -55 -41 -57 2 -3 10 1 16 7 20 20 33 14 102
-49 72 -67 80 -89 45 -133 -39 -49 -78 -35 -187 68 l-43 41 -29 -35 c-29 -34
-42 -66 -18 -42 20 20 35 14 105 -48 37 -32 80 -62 95 -65 59 -14 129 61 113
122 -5 23 -5 23 19 8 24 -16 25 -16 46 25 24 47 22 57 -8 39 -18 -11 -26 -8
-68 28 -27 23 -62 55 -79 72 -25 27 -28 34 -17 51 24 39 -7 19 -51 -32z"/>
<path d="M860 1270 c32 -32 30 -35 -59 -109 l-64 -53 -24 31 c-14 18 -30 28
-38 25 -12 -5 -9 -13 12 -40 14 -19 24 -36 22 -38 -2 -1 -21 -15 -41 -30 -44
-33 -46 -39 -16 -53 19 -8 29 -5 59 19 31 25 41 28 57 19 30 -16 35 -14 18 10
-14 21 -11 24 65 86 84 68 94 88 63 131 -10 14 -25 22 -45 22 l-29 0 20 -20z"/>
<path d="M471 1197 c-18 -23 -2 -49 28 -45 20 2 26 8 26 28 0 29 -34 40 -54
17z"/>
<path d="M935 1085 c-14 -13 -25 -29 -25 -36 0 -7 16 -41 35 -75 29 -52 34
-67 25 -84 -19 -36 -72 -24 -96 21 -11 22 -12 34 -3 50 16 31 2 36 -26 8 l-25
-24 25 -38 c46 -67 117 -86 160 -42 32 31 31 47 -5 112 -35 62 -38 88 -9 103
28 16 70 -2 92 -39 21 -36 21 -50 1 -72 -27 -30 2 -29 31 1 l28 29 -23 34
c-53 77 -137 101 -185 52z"/>
<path d="M1160 976 c0 -4 5 -15 12 -26 10 -16 7 -25 -20 -62 -101 -132 -107
-156 -54 -210 21 -23 34 -28 75 -28 l50 0 -19 -21 c-12 -14 -15 -23 -8 -26 6
-2 28 -12 48 -22 20 -11 39 -15 42 -10 3 5 -2 12 -10 15 -9 3 -16 13 -16 21 0
13 117 173 127 173 2 0 13 -5 24 -10 38 -21 18 6 -37 49 -30 24 -58 40 -62 36
-4 -3 1 -11 11 -16 25 -14 22 -24 -29 -90 -64 -83 -82 -94 -128 -75 -68 28
-59 82 30 184 24 28 44 54 44 59 0 9 -80 68 -80 59z"/>
<path d="M4302 928 c-61 -49 -76 -72 -32 -48 28 15 38 7 162 -149 l99 -123
-20 -22 c-12 -13 -19 -25 -15 -28 6 -7 134 92 134 104 0 12 -14 10 -27 -3 -7
-7 -18 -9 -26 -6 -16 6 -227 265 -227 278 0 4 7 14 15 23 16 16 19 26 8 26 -5
-1 -36 -24 -71 -52z"/>
<path d="M4142 811 c-68 -45 -88 -73 -36 -49 13 6 26 9 28 7 27 -27 196 -286
196 -300 0 -10 -8 -22 -17 -28 -10 -5 -15 -12 -11 -16 5 -6 148 82 148 92 0 2
-15 1 -34 -2 -33 -7 -34 -6 -109 103 -41 60 -86 128 -98 150 -23 40 -23 41 -5
61 34 38 11 31 -62 -18z"/>
<path d="M1450 752 c0 -4 9 -13 20 -20 11 -7 20 -16 20 -20 0 -5 -41 -77 -90
-160 -91 -153 -108 -169 -139 -139 -11 10 -13 9 -9 -2 5 -16 123 -91 142 -91
6 1 0 10 -13 20 -28 24 -29 20 59 170 92 156 109 176 138 161 12 -6 22 -8 22
-2 0 8 -131 91 -144 91 -3 0 -6 -3 -6 -8z"/>
<path d="M1931 480 l-22 -70 -82 0 -81 0 62 -45 c34 -25 62 -49 62 -54 0 -5
-9 -38 -20 -72 -10 -35 -18 -64 -17 -66 2 -1 28 15 58 37 29 22 58 40 62 40 5
0 34 -18 64 -40 31 -22 58 -39 60 -37 2 2 -6 30 -17 62 -11 32 -20 63 -20 69
0 6 28 31 61 56 l60 45 -77 5 -76 5 -23 63 c-13 35 -25 65 -27 67 -2 3 -14
-27 -27 -65z m54 -32 l18 -48 61 0 61 -1 -49 -44 -50 -45 17 -52 c9 -28 15
-54 12 -56 -2 -2 -24 10 -49 27 -24 17 -49 31 -54 31 -5 0 -28 -14 -50 -30
-23 -17 -44 -30 -46 -30 -2 0 3 28 12 61 l15 62 -26 19 c-14 10 -36 27 -49 38
l-23 19 66 1 65 0 18 56 c10 31 21 52 26 48 4 -5 15 -30 25 -56z"/>
<path d="M1941 438 l-14 -48 -56 -1 c-56 0 -56 0 -32 -17 64 -44 63 -43 46
-91 -8 -24 -14 -46 -12 -47 2 -2 19 7 37 21 42 31 48 31 90 0 18 -14 35 -23
37 -21 2 1 -4 22 -12 46 -14 40 -14 44 2 55 10 7 29 22 43 34 l25 20 -51 1
-50 0 -20 48 -20 47 -13 -47z m39 -45 c0 -9 14 -13 43 -13 l42 -1 -33 -27
c-30 -25 -32 -30 -23 -55 16 -40 15 -41 -23 -19 -33 20 -34 20 -64 0 l-31 -19
10 35 c9 33 8 38 -18 61 l-28 24 38 1 c34 0 39 4 49 32 10 29 12 30 25 13 7
-11 13 -25 13 -32z"/>
<path d="M3690 481 l-21 -70 -80 -3 -81 -3 61 -43 c34 -23 61 -46 61 -50 0 -4
-9 -36 -20 -71 -11 -36 -18 -66 -16 -68 1 -2 27 15 56 37 30 22 57 40 61 40 5
0 34 -18 65 -40 32 -22 59 -38 61 -37 2 2 -6 30 -17 62 -11 32 -20 63 -20 70
0 6 28 31 61 56 l61 44 -78 5 -79 5 -23 65 c-13 35 -25 66 -27 68 -2 2 -13
-28 -25 -67z m54 -33 l18 -48 61 0 62 -1 -49 -43 -49 -44 16 -56 c8 -31 13
-56 11 -56 -3 0 -25 14 -49 30 -24 17 -47 30 -52 30 -4 0 -28 -13 -53 -30 -24
-16 -45 -28 -47 -27 -1 2 4 25 12 52 8 26 15 53 15 59 -1 6 -22 27 -48 46
l-47 35 65 5 65 5 19 53 c10 29 22 49 26 45 4 -4 15 -29 24 -55z"/>
<path d="M3700 438 l-12 -47 -55 -3 -55 -3 46 -32 c50 -35 63 -35 19 1 l-28
21 39 5 c34 4 41 10 51 40 l12 35 12 -37 c11 -34 16 -38 47 -38 40 0 43 -12 9
-34 -14 -9 -25 -21 -25 -26 0 -6 10 -1 23 9 12 11 33 29 47 40 l25 20 -51 1
-52 0 -20 48 -20 47 -12 -47z"/>
<path d="M3646 286 c-3 -13 -9 -32 -12 -41 -5 -13 3 -10 35 11 46 30 40 31
110 -15 23 -15 23 -14 16 9 -11 37 -28 61 -22 33 6 -28 0 -28 -33 -3 -24 18
-25 18 -58 -2 l-33 -20 7 26 c3 14 4 26 1 26 -3 0 -8 -11 -11 -24z"/>
<path d="M2736 283 c-79 -183 -119 -263 -132 -263 -8 0 -14 -3 -14 -7 0 -5 25
-8 55 -8 30 0 55 3 55 8 0 4 -6 7 -14 7 -26 0 -28 19 -7 65 l20 45 70 0 71 0
15 -35 c23 -57 22 -68 -5 -76 -31 -9 -20 -11 55 -10 74 0 75 0 50 11 -15 5
-43 59 -94 179 -40 94 -76 171 -80 171 -4 0 -25 -39 -45 -87z m67 -68 l25 -60
-55 -3 c-30 -2 -57 -1 -60 1 -2 3 8 34 23 71 15 36 31 63 35 59 4 -5 18 -35
32 -68z"/>
<path d="M2438 350 c21 -9 22 -13 22 -166 0 -147 -1 -156 -20 -161 -40 -10
-19 -18 50 -18 39 0 70 3 70 8 0 4 -9 7 -19 7 -10 0 -22 7 -25 16 -9 22 -7
287 2 300 4 7 16 14 27 17 11 2 -14 5 -55 5 -54 1 -69 -2 -52 -8z"/>
<path d="M3001 353 c10 -2 42 -69 85 -178 38 -96 74 -175 80 -175 6 0 35 60
64 132 80 198 89 216 108 221 9 3 -12 5 -48 4 -36 0 -55 -2 -42 -4 13 -3 25
-10 28 -18 6 -14 -85 -255 -95 -255 -7 0 -101 239 -101 257 0 6 10 14 23 16
12 2 -9 4 -48 4 -38 1 -63 -1 -54 -4z"/>
</g>
</svg>
