<?xml version="1.0" standalone="no"?>
<!DOCTYPE svg PUBLIC "-//W3C//DTD SVG 20010904//EN"
 "http://www.w3.org/TR/2001/REC-SVG-20010904/DTD/svg10.dtd">
<svg version="1.0" xmlns="http://www.w3.org/2000/svg"
 width="451.000000pt" height="438.000000pt" viewBox="0 0 451.000000 438.000000"
 preserveAspectRatio="xMidYMid meet">

<g transform="translate(0.000000,438.000000) scale(0.100000,-0.100000)"
fill="#000000" stroke="none">
<path d="M2062 3781 c-40 -10 -112 -38 -160 -61 -70 -35 -104 -61 -173 -130
-73 -72 -94 -101 -132 -180 -60 -124 -82 -230 -74 -360 18 -286 167 -697 436
-1200 109 -204 249 -440 261 -440 8 0 75 110 192 315 59 105 230 445 280 560
153 350 223 603 223 805 0 139 -13 196 -72 320 -38 79 -59 108 -132 180 -69
69 -103 95 -171 128 -162 80 -322 101 -478 63z m231 -462 c49 -13 115 -73 138
-124 24 -52 24 -138 0 -190 -65 -144 -263 -180 -375 -69 -85 85 -88 227 -8
316 63 71 149 94 245 67z"/>
<path d="M1470 1911 c-14 -5 -50 -14 -80 -21 -210 -49 -412 -145 -485 -232
-69 -82 -82 -169 -39 -256 31 -62 86 -111 184 -163 478 -256 1637 -281 2240
-48 93 35 218 116 254 164 143 187 -1 390 -354 499 -108 33 -225 59 -270 60
l-35 1 -12 -75 c-7 -41 -9 -77 -5 -81 4 -4 52 -17 107 -29 183 -41 335 -101
409 -162 44 -36 49 -82 14 -115 -189 -175 -860 -285 -1453 -239 -370 29 -605
79 -798 171 -55 27 -137 95 -137 115 0 5 16 28 36 49 58 65 216 132 424 181
52 13 98 26 102 29 4 4 2 40 -5 81 -12 73 -13 75 -42 77 -17 1 -41 -2 -55 -6z"/>
</g>
</svg>
