<?xml version="1.0" standalone="no"?>
<!DOCTYPE svg PUBLIC "-//W3C//DTD SVG 20010904//EN"
 "http://www.w3.org/TR/2001/REC-SVG-20010904/DTD/svg10.dtd">
<svg version="1.0" xmlns="http://www.w3.org/2000/svg"
 width="491.000000pt" height="491.000000pt" viewBox="0 0 491.000000 491.000000"
 preserveAspectRatio="xMidYMid meet">

<g transform="translate(0.000000,491.000000) scale(0.100000,-0.100000)"
fill="#000000" stroke="none">
<path d="M3725 4473 c6 -6 54 -43 109 -83 127 -95 307 -268 409 -395 277 -343
447 -755 498 -1205 16 -145 6 -472 -20 -610 -65 -352 -193 -661 -392 -943 -35
-50 -68 -95 -74 -101 -5 -7 -38 -43 -72 -82 -117 -134 -251 -255 -396 -357
-98 -69 -299 -185 -337 -193 -14 -4 -79 -28 -145 -54 -134 -54 -388 -123 -510
-139 -44 -5 -136 -13 -204 -17 l-124 -7 33 59 c19 33 256 443 527 912 271 469
493 855 493 858 0 2 -443 4 -985 3 -1078 0 -1015 3 -1015 -58 0 -15 -6 -33
-12 -40 -8 -9 -8 -11 -2 -8 7 4 18 -9 28 -32 8 -22 20 -42 25 -45 15 -10 41
-67 35 -77 -3 -5 0 -8 8 -7 7 2 14 -7 16 -20 2 -12 8 -22 13 -22 5 0 9 -7 9
-16 0 -8 3 -13 8 -11 4 3 13 -1 19 -9 7 -7 9 -15 4 -19 -5 -3 -11 0 -13 6 -2
7 -9 5 -17 -5 -12 -14 -12 -16 3 -10 9 3 16 1 16 -6 0 -6 5 -8 10 -5 6 3 14
-4 19 -17 5 -13 22 -47 39 -75 24 -40 27 -51 14 -47 -9 3 -5 -2 11 -11 15 -8
27 -20 27 -25 0 -19 3 -25 19 -37 9 -7 12 -13 8 -13 -5 0 -1 -7 7 -16 9 -8 16
-21 16 -29 0 -7 6 -15 14 -18 7 -3 19 -26 27 -51 7 -24 17 -42 21 -40 4 3 8
-2 8 -11 0 -9 5 -13 10 -10 5 3 10 1 10 -5 0 -6 12 -29 26 -52 20 -32 24 -46
16 -58 -7 -12 -7 -17 4 -17 7 0 11 4 8 8 -2 4 0 10 5 13 11 7 19 -12 16 -41
-1 -12 2 -20 6 -17 5 3 18 -15 30 -38 12 -24 28 -51 36 -60 9 -10 13 -24 9
-33 -3 -9 -2 -13 4 -10 5 3 15 -5 22 -19 6 -14 16 -26 22 -26 6 0 4 -5 -4 -10
-12 -8 -12 -10 5 -10 15 0 17 -2 6 -9 -11 -7 -9 -10 8 -16 19 -6 20 -9 9 -23
-7 -10 -9 -14 -4 -10 4 4 24 -14 43 -39 24 -32 31 -48 23 -53 -8 -5 -7 -9 4
-13 31 -12 16 -44 -17 -38 -5 1 -7 -6 -5 -16 2 -10 11 -18 21 -18 9 0 17 -5
16 -10 0 -6 -7 -9 -16 -7 -13 3 -13 1 -2 -11 8 -8 20 -12 26 -10 7 3 13 -2 13
-12 0 -10 -5 -13 -12 -9 -7 4 -8 3 -4 -5 4 -6 12 -9 17 -6 5 4 16 2 25 -3 15
-8 15 -10 -1 -16 -9 -3 -22 -3 -27 1 -7 4 -8 1 -4 -6 5 -7 15 -10 23 -6 12 4
13 3 5 -8 -7 -8 -9 -17 -5 -21 4 -4 13 4 20 16 7 13 12 17 13 10 0 -7 5 -10
12 -6 7 4 8 3 4 -5 -4 -6 -12 -8 -18 -5 -7 4 -8 2 -4 -4 4 -7 15 -12 24 -12
22 0 77 -96 62 -105 -6 -4 -9 -13 -6 -20 2 -7 -1 -18 -7 -24 -12 -12 -3 -26
12 -17 5 4 8 18 5 31 -2 14 0 25 5 25 6 0 8 -9 6 -20 -2 -11 0 -22 5 -25 9 -6
8 -24 -2 -41 -4 -6 4 -31 17 -56 l25 -46 -63 -4 c-37 -2 -131 8 -232 24 -195
31 -207 32 -145 12 25 -8 65 -21 90 -29 25 -8 115 -27 200 -42 141 -25 176
-28 380 -27 264 1 361 12 570 65 142 36 433 143 513 188 266 151 459 303 621
491 261 301 431 627 516 993 18 81 20 120 20 507 0 387 -2 426 -20 507 -33
139 -79 278 -132 393 -11 25 -31 69 -45 98 -28 61 -129 233 -182 307 -97 138
-222 276 -345 382 -55 48 -104 92 -108 98 -4 5 -8 7 -8 3 0 -5 -11 2 -25 14
-13 11 -50 38 -82 59 -32 22 -63 43 -70 49 -7 5 -17 10 -23 10 -5 0 -10 4 -10
8 0 8 -51 36 -59 32 -2 -1 -7 2 -10 7 -3 4 -22 17 -41 27 -19 10 -30 14 -25 9z
m-1902 -2370 c-13 -2 -33 -2 -45 0 -13 2 -3 4 22 4 25 0 35 -2 23 -4z m407
-1357 c0 -2 -7 -7 -16 -10 -8 -3 -12 -2 -9 4 6 10 25 14 25 6z"/>
<path d="M632 3691 c-11 -7 -10 -9 3 -14 9 -4 13 -3 10 3 -4 6 6 10 22 9 24 0
25 -1 8 -8 l-20 -8 20 -5 c12 -4 5 -6 -17 -7 -21 0 -38 -2 -39 -3 -9 -48 -9
-88 1 -88 8 0 11 -9 8 -25 -3 -13 -2 -24 1 -23 21 2 31 -4 31 -21 0 -11 10
-27 23 -37 17 -13 18 -15 3 -10 -16 5 -17 4 -6 -9 7 -8 16 -13 20 -10 4 3 11
-2 14 -11 9 -24 7 -31 -4 -14 -6 9 -10 10 -10 3 0 -7 6 -16 14 -20 7 -4 21
-24 31 -43 10 -19 24 -39 31 -43 8 -4 14 -13 14 -18 0 -6 -4 -8 -9 -5 -5 3
-15 -2 -22 -12 -13 -15 -12 -16 2 -4 22 17 38 1 75 -73 16 -30 33 -55 39 -55
5 0 -1 -9 -15 -20 -14 -11 -17 -18 -8 -14 11 4 29 -7 54 -31 33 -33 34 -37 13
-31 l-24 7 23 -14 c12 -7 19 -17 15 -22 -4 -4 0 -5 9 -2 10 3 17 3 16 -1 -1
-4 2 -24 7 -45 6 -29 4 -42 -7 -54 -12 -12 -13 -20 -4 -39 l11 -24 1490 0
1491 0 224 393 c123 215 233 407 243 425 l19 32 -370 0 c-279 -1 -372 -4 -376
-13 -3 -9 -5 -9 -5 1 -1 16 -2386 18 -2396 2 -3 -6 -25 -9 -48 -8 l-42 1 45 6
c27 4 -17 8 -110 9 -112 1 -156 -2 -162 -11 -6 -9 -8 -9 -8 1 0 9 -27 12 -107
10 -104 -1 -105 -2 -38 -8 l70 -6 -82 -2 c-50 -1 -83 2 -83 8 0 12 -70 13 -88
1z m1106 -8 c-16 -2 -40 -2 -55 0 -16 2 -3 4 27 4 30 0 43 -2 28 -4z m305 0
c-24 -2 -62 -2 -85 0 -24 2 -5 4 42 4 47 0 66 -2 43 -4z m300 0 c-34 -2 -93
-2 -130 0 -37 2 -9 3 62 3 72 0 102 -1 68 -3z m515 0 c-10 -2 -28 -2 -40 0
-13 2 -5 4 17 4 22 1 32 -1 23 -4z m-2061 -19 c-3 -3 -12 -4 -19 -1 -8 3 -5 6
6 6 11 1 17 -2 13 -5z m500 0 c-3 -3 -12 -4 -19 -1 -8 3 -5 6 6 6 11 1 17 -2
13 -5z m400 0 c-3 -3 -12 -4 -19 -1 -8 3 -5 6 6 6 11 1 17 -2 13 -5z m926 -1
c-13 -2 -33 -2 -45 0 -13 2 -3 4 22 4 25 0 35 -2 23 -4z m560 0 c-13 -2 -33
-2 -45 0 -13 2 -3 4 22 4 25 0 35 -2 23 -4z"/>
<path d="M1153 2691 c-52 -24 -83 -71 -83 -127 0 -56 29 -82 106 -94 69 -11
99 -38 89 -79 -13 -51 -78 -101 -133 -101 -31 0 -62 26 -62 53 0 10 -8 17 -20
17 -16 0 -20 -7 -20 -34 0 -53 20 -66 104 -66 127 0 206 61 206 159 0 77 -29
100 -143 116 -87 12 -101 84 -23 122 30 14 42 14 74 5 57 -17 64 -16 60 16 -3
25 -6 27 -58 30 -38 1 -68 -4 -97 -17z"/>
<path d="M1658 2703 c-38 -2 -68 -8 -68 -13 0 -6 11 -10 24 -10 22 0 25 -5 31
-52 3 -29 2 -117 -2 -196 -5 -79 -5 -149 -1 -155 10 -17 263 -14 283 3 30 25
16 32 -49 25 -35 -4 -87 -4 -115 0 l-51 7 0 84 0 84 80 0 c74 0 80 1 80 21 0
19 -5 20 -80 17 l-81 -3 3 75 3 75 50 0 c28 0 60 -4 72 -8 17 -6 24 -3 33 13
6 12 9 25 5 28 -8 8 -124 11 -217 5z"/>
<path d="M2775 2701 c-98 -26 -157 -93 -170 -197 -13 -97 35 -187 120 -225 46
-21 176 -26 239 -8 106 29 173 175 134 290 -31 93 -100 139 -215 145 -43 2
-91 0 -108 -5z m175 -54 c96 -64 109 -229 24 -309 -99 -93 -245 -45 -284 93
-15 53 -12 99 11 146 47 97 159 129 249 70z"/>
<path d="M3393 2690 c-49 -22 -55 -37 -16 -42 14 -2 35 -15 45 -29 19 -25 19
-26 -15 -125 -19 -54 -51 -139 -70 -189 -20 -49 -34 -92 -31 -94 13 -14 41 23
74 99 59 136 91 200 100 200 4 0 34 -52 66 -115 38 -75 64 -115 74 -115 10 0
46 49 95 132 l78 133 13 -40 c7 -22 24 -87 39 -143 16 -57 34 -106 41 -109 12
-4 74 23 74 33 0 2 -9 17 -20 32 -19 26 -100 320 -100 362 0 14 -10 21 -35 26
-45 8 -50 3 -36 -37 10 -29 7 -40 -45 -138 -30 -58 -62 -115 -71 -126 -15 -20
-15 -20 -31 3 -10 12 -48 84 -87 159 -39 77 -77 139 -85 140 -8 1 -34 -7 -57
-17z"/>
<path d="M2120 2660 c0 -22 2 -40 5 -40 3 0 22 9 42 20 50 27 128 27 142 1 10
-17 10 -338 0 -371 -5 -17 4 -17 76 3 53 15 61 28 23 38 l-23 5 3 169 c2 93 4
171 6 172 1 2 43 7 91 11 56 4 90 12 93 20 3 9 -47 12 -227 12 l-231 0 0 -40z"/>
<path d="M1440 2315 c-6 -8 -9 -23 -5 -35 5 -15 15 -20 41 -20 31 0 34 3 34
29 0 40 -45 57 -70 26z"/>
<path d="M2000 2315 c-6 -8 -9 -23 -5 -35 5 -15 15 -20 41 -20 31 0 34 3 34
29 0 40 -45 57 -70 26z"/>
<path d="M3172 2318 c-30 -30 0 -75 43 -64 19 5 25 13 25 35 0 38 -41 56 -68
29z"/>
<path d="M1586 1823 c-6 -14 -5 -15 5 -6 7 7 10 15 7 18 -3 3 -9 -2 -12 -12z"/>
<path d="M2046 1062 c-3 -5 1 -9 9 -9 8 0 12 4 9 9 -3 4 -7 8 -9 8 -2 0 -6 -4
-9 -8z"/>
</g>
</svg>
