<?xml version="1.0" standalone="no"?>
<!DOCTYPE svg PUBLIC "-//W3C//DTD SVG 20010904//EN"
 "http://www.w3.org/TR/2001/REC-SVG-20010904/DTD/svg10.dtd">
<svg version="1.0" xmlns="http://www.w3.org/2000/svg"
 width="736.000000pt" height="552.000000pt" viewBox="0 0 736.000000 552.000000"
 preserveAspectRatio="xMidYMid meet">

<g transform="translate(0.000000,552.000000) scale(0.100000,-0.100000)"
fill="#000000" stroke="none">
<path d="M2805 4436 c-16 -8 -203 -187 -414 -399 l-384 -385 -4 -49 c-4 -33 0
-59 10 -79 25 -46 570 -584 593 -584 12 0 84 65 189 170 l170 170 73 0 74 0
102 -102 c55 -57 107 -111 115 -121 13 -16 -2 -34 -171 -205 -157 -157 -188
-194 -197 -229 -15 -56 -1 -111 41 -159 l31 -35 -51 -52 c-68 -69 -68 -87 3
-157 l55 -54 -60 -61 c-61 -61 -70 -81 -48 -103 21 -21 39 -13 102 48 l62 59
54 -54 c69 -70 87 -70 150 -5 27 28 51 50 55 50 3 0 23 -13 43 -30 48 -38 116
-52 168 -34 27 9 88 64 218 193 100 100 185 181 189 181 5 0 60 -51 123 -114
l114 -113 0 -74 0 -74 -170 -170 c-110 -109 -170 -177 -170 -190 0 -26 552
-579 593 -594 39 -15 83 -14 115 3 15 8 197 185 404 393 407 407 408 408 387
487 -9 35 -55 86 -292 323 -155 156 -290 286 -300 289 -16 5 -57 -31 -196
-170 l-176 -176 -70 0 -70 0 -120 120 -119 120 176 177 c135 137 178 187 186
215 7 26 6 85 -4 200 -14 159 -30 224 -61 250 -12 9 -4 21 42 68 l56 57 91
-46 90 -46 106 1 c124 0 184 19 267 82 79 60 77 64 -76 218 l-132 133 36 40
c42 47 44 52 19 74 -26 23 -31 22 -74 -20 l-38 -37 -133 132 c-87 87 -140 132
-154 132 -41 0 -106 -94 -137 -199 -34 -117 -8 -279 59 -367 l27 -36 -58 -59
c-50 -51 -60 -57 -73 -45 -41 35 -84 45 -251 60 -153 14 -176 14 -209 0 -22
-9 -103 -82 -208 -187 l-173 -172 -120 120 -120 120 0 70 0 70 169 169 c93 93
172 179 175 190 4 17 -47 74 -272 299 -318 319 -347 339 -427 303z m345 -331
l265 -265 -117 -117 -118 -118 -280 280 -280 280 103 103 c83 82 110 102 133
102 24 0 70 -42 294 -265z m-300 -280 l275 -275 -116 -116 -115 -115 -277 273
c-152 150 -277 277 -277 283 0 13 212 225 225 225 6 0 134 -124 285 -275z
m2057 -349 c-57 -46 -189 -70 -280 -50 -90 19 -202 109 -244 195 -56 113 -51
234 14 348 l25 44 257 -257 256 -257 -28 -23z m-2478 197 c80 -82 204 -208
276 -281 l129 -132 -109 -110 c-60 -61 -114 -110 -120 -110 -14 0 -521 511
-529 533 -3 10 -1 28 5 40 10 20 189 207 198 207 2 0 69 -66 150 -147z m1668
-506 c199 -198 223 -226 223 -255 0 -23 -10 -43 -32 -67 l-33 -36 -258 259
-258 259 36 31 c69 61 71 60 322 -191z m125 136 c74 -73 87 -103 65 -149 -9
-19 -20 -34 -25 -34 -4 0 -54 47 -111 104 -104 105 -111 118 -67 136 40 18 79
1 138 -57z m-280 -290 l258 -258 -287 -287 c-159 -159 -291 -288 -296 -288
-15 0 -508 494 -505 507 3 12 556 578 568 582 3 0 121 -115 262 -256z m1096
-796 c201 -202 262 -269 262 -288 0 -18 -28 -52 -105 -129 l-105 -105 -277
278 -278 277 115 115 c63 63 117 115 120 115 3 0 124 -118 268 -263z m-1838
48 l105 -105 -38 -37 -37 -38 -107 107 -107 108 34 35 c19 19 36 35 40 35 3 0
52 -47 110 -105z m1560 -350 l275 -275 -115 -115 -116 -115 -279 275 -280 275
115 115 c63 63 117 115 120 115 3 0 129 -124 280 -275z m-20 -566 c0 -3 -47
-51 -104 -108 -89 -87 -108 -102 -128 -96 -13 4 -141 125 -286 269 l-263 262
118 117 118 117 272 -278 c150 -152 273 -280 273 -283z"/>
<path d="M3484 2968 c-68 -67 -124 -129 -124 -138 0 -9 5 -21 12 -28 7 -7 19
-12 28 -12 17 0 260 240 260 256 0 15 -14 30 -34 37 -15 6 -45 -18 -142 -115z"/>
</g>
</svg>
