<?xml version="1.0" standalone="no"?>
<!DOCTYPE svg PUBLIC "-//W3C//DTD SVG 20010904//EN"
 "http://www.w3.org/TR/2001/REC-SVG-20010904/DTD/svg10.dtd">
<svg version="1.0" xmlns="http://www.w3.org/2000/svg"
 width="735.000000pt" height="490.000000pt" viewBox="0 0 735.000000 490.000000"
 preserveAspectRatio="xMidYMid meet">

<g transform="translate(0.000000,490.000000) scale(0.100000,-0.100000)"
fill="#000000" stroke="none">
<path d="M2757 3813 c-4 -3 -7 -133 -7 -289 0 -318 -7 -294 86 -294 l53 0 3
-122 3 -123 28 -3 c21 -3 27 -8 23 -20 -3 -9 -49 -186 -102 -392 -128 -496
-232 -900 -295 -1142 l-52 -196 23 -37 c44 -71 101 -82 163 -32 24 19 34 45
73 197 24 96 54 210 65 253 l21 77 119 0 119 0 0 -259 0 -259 40 -36 c55 -49
90 -49 141 3 l39 39 0 256 0 256 115 0 c110 0 116 -1 125 -22 6 -13 37 -126
70 -253 52 -204 62 -233 87 -252 35 -28 84 -38 112 -23 12 6 33 29 47 51 l25
40 -101 392 c-104 399 -155 599 -274 1062 -37 143 -69 268 -72 278 -4 13 1 17
21 17 14 0 28 6 30 13 2 6 6 64 7 127 l3 115 53 -3 c70 -5 82 6 82 79 l0 58
103 3 102 3 0 155 0 155 -102 3 -103 3 0 49 c0 87 41 80 -439 80 -235 0 -431
-3 -434 -7z m823 -288 l0 -245 -390 0 -390 0 0 245 0 245 390 0 390 0 0 -245z
m210 0 l0 -115 -80 0 -80 0 0 115 0 115 80 0 80 0 0 -115z m-341 -395 l1 -100
-92 -1 c-51 -1 -167 -1 -258 -1 l-165 1 -3 101 -3 100 259 0 259 0 2 -100z
m-369 -242 c0 -70 -8 -121 -29 -203 -16 -60 -88 -339 -161 -620 -226 -875
-218 -848 -241 -868 -33 -27 -66 -22 -84 14 -15 29 -14 39 40 252 31 122 63
245 71 272 8 28 48 181 88 340 100 390 226 877 231 893 3 7 21 12 45 12 l40 0
0 -92z m170 -800 l0 -892 -22 -23 c-27 -29 -55 -29 -79 -1 -18 22 -18 57 -19
916 l0 892 60 0 60 0 0 -892z m139 860 c5 -18 44 -166 86 -328 41 -162 90
-353 109 -425 231 -883 247 -953 231 -985 -18 -35 -51 -40 -84 -12 -25 20 -10
-32 -242 867 -44 171 -105 405 -135 520 -46 180 -54 223 -54 303 l0 92 39 0
c36 0 40 -3 50 -32z m-309 -788 l0 -430 -116 0 c-96 0 -115 2 -111 14 3 8 33
121 67 253 34 131 81 315 106 409 24 94 44 174 44 177 0 4 2 7 5 7 3 0 5 -193
5 -430z m335 7 c58 -224 105 -414 105 -422 0 -12 -19 -15 -110 -15 l-110 0 1
433 c0 237 2 428 4 422 3 -5 52 -193 110 -418z"/>
<path d="M2857 3714 c-4 -4 -7 -67 -7 -141 0 -124 1 -133 19 -133 27 0 32 22
30 135 l-2 100 79 5 c61 4 79 8 79 20 0 12 -19 16 -95 18 -53 1 -99 0 -103 -4z"/>
<path d="M3128 3634 c-60 -32 -78 -129 -33 -183 53 -62 137 -62 190 0 45 55
27 152 -35 184 -36 19 -87 19 -122 -1z m125 -66 c55 -73 -53 -159 -118 -93
-31 30 -32 64 -4 99 29 37 92 34 122 -6z"/>
<path d="M4516 3804 c-9 -24 -7 -2647 3 -2662 6 -9 44 -12 157 -10 l149 3 3
1320 c1 726 0 1330 -3 1343 -5 22 -8 22 -154 22 -126 0 -150 -2 -155 -16z
m264 -1329 l0 -1295 -109 0 -109 0 -1 94 -1 95 33 3 c44 4 44 32 0 36 l-33 3
0 79 0 79 63 3 c54 3 62 5 62 23 0 18 -8 20 -62 23 l-63 3 0 79 0 80 29 0 c31
0 46 21 28 39 -6 6 -21 11 -34 11 -22 0 -23 3 -23 80 l0 80 65 0 c58 0 65 2
65 20 0 18 -7 20 -65 20 l-65 0 0 80 c0 78 1 80 24 80 26 0 51 24 41 40 -3 5
-19 10 -36 10 l-29 0 0 80 0 79 63 3 c54 3 62 5 62 23 0 18 -8 20 -62 23 l-63
3 0 79 0 79 33 3 c44 4 44 32 -1 36 l-33 3 3 82 3 82 42 -3 c56 -4 83 5 83 29
0 17 -7 19 -65 19 l-65 0 0 80 c0 77 1 80 23 80 13 0 28 5 35 12 16 16 -3 38
-34 38 -23 0 -24 2 -24 80 l0 80 65 0 c58 0 65 2 65 20 0 11 -6 20 -12 21 -7
0 -35 1 -63 2 l-50 2 -3 82 -3 82 33 3 c45 4 45 32 1 36 l-33 3 0 79 0 79 63
3 c54 3 62 5 62 23 0 18 -8 20 -62 23 l-63 3 0 39 0 40 110 0 110 0 0 -1295z"/>
</g>
</svg>
